<?xml version="1.0" standalone="no"?><!DOCTYPE svg PUBLIC "-//W3C//DTD SVG 1.1//EN" "http://www.w3.org/Graphics/SVG/1.1/DTD/svg11.dtd">
<svg t="1522806186194" class="icon" style="" viewBox="0 0 1024 1024" version="1.1" xmlns="http://www.w3.org/2000/svg" p-id="7408" xmlns:xlink="http://www.w3.org/1999/xlink" width="48" height="48">
	<defs>
		<style type="text/css"></style>
	</defs>
	<path d="M499.673778 135.102889l-189.084284 0c-57.180247 0-113.267603 26.175123-131.388291 64.251285l0 599.794979c7.323795 48.119903 63.432641 85.654736 131.388291 85.654736l544.136387 0 0-749.701001L499.673778 135.102889 499.673778 135.102889 499.673778 135.102889zM478.27442 177.910815l0 290.99627-49.125812-49.125812c-4.185318-4.180202-9.685583-6.273884-15.146963-6.273884-5.478776 0-10.984158 2.093682-15.168453 6.273884l-49.121718 49.125812 0-290.99627L478.27442 177.910815 478.27442 177.910815 478.27442 177.910815zM811.87907 841.957079l-501.289576 0c-47.638949 0-89.396963-25.002415-89.396963-53.538303 0-28.535888 41.759038-53.577189 89.396963-53.577189l501.289576 0L811.87907 841.957079 811.87907 841.957079 811.87907 841.957079zM310.589494 691.993752c-34.499711 0-65.864014 9.768471-89.396963 25.584676l0-492.258908c4.876049-22.681559 38.850804-45.947426 85.672133-47.181532l0 342.487963c0 8.679675 5.208623 16.484423 13.223149 19.812212 8.032946 3.323695 17.215063 1.46128 23.344661-4.686738l70.570195-70.526193 70.546659 70.526193c4.079918 4.141316 9.580183 6.274907 15.12445 6.274907 2.763947 0 5.545291-0.49835 8.225327-1.58817 7.988944-3.327788 13.223149-11.132537 13.223149-19.812212l0-342.715136 290.756816 0 0 514.078844-501.289576 0L310.589494 691.993752 310.589494 691.993752zM310.589494 691.993752" p-id="7409" fill="#FFFFFF"></path>
</svg>