<?xml version="1.0" standalone="no"?><!DOCTYPE svg PUBLIC "-//W3C//DTD SVG 1.1//EN" "http://www.w3.org/Graphics/SVG/1.1/DTD/svg11.dtd"><svg t="1536715136959" class="icon" style="" viewBox="0 0 1024 1024" version="1.1" xmlns="http://www.w3.org/2000/svg" p-id="1521" xmlns:xlink="http://www.w3.org/1999/xlink" width="64" height="64"><defs><style type="text/css"></style></defs><path d="M256.729 264.508h548.796c12.07 0 21.948 9.882 21.948 21.961 0 12.07-9.878 21.94-21.948 21.94H256.729c-12.07 0-21.949-9.87-21.949-21.94 0.001-12.079 9.876-21.961 21.949-21.961z m0 0" p-id="1522" fill="#FFFFFF"></path><path d="M193.33 283.098c0-33.874 40.486-54.729 75.329-54.729h535.536c11.316 0 23.279-15.617 23.279-26.615 0-11-9.229-19.975-20.544-19.975H256.46c-57.474 0-104.223 45.448-104.223 101.319v542.48c0 55.867 46.749 101.314 104.223 101.314h571.014V344.467H256.46c-34.842 0-63.13-27.504-63.13-61.369z m308.095 256.829c0.077-27.919 22.687-50.532 50.606-50.605h29.15c27.949 0 50.602 22.66 50.602 50.605v29.284c0 27.945-22.656 50.602-50.602 50.602h-79.756v-79.886z m0 99.187h79.756c27.949 0 50.602 22.652 50.602 50.606v29.015c0 27.94-22.652 50.602-50.602 50.602v0.135h-29.15c-27.968-0.073-50.606-22.769-50.606-50.736v-79.622z m-151-99.187c0.073-27.919 22.683-50.532 50.602-50.605h29.284c27.918 0.081 50.528 22.691 50.605 50.605v79.886h-79.889c-27.946 0-50.602-22.656-50.602-50.602v-29.284z m0 149.794c0.073-27.919 22.683-50.533 50.602-50.606h79.889v79.616c0 27.973-22.637 50.668-50.605 50.741h-29.284c-27.968-0.073-50.602-22.769-50.602-50.741v-29.01z" p-id="1523" fill="#FFFFFF"></path></svg>