<?xml version="1.0" standalone="no"?><!DOCTYPE svg PUBLIC "-//W3C//DTD SVG 1.1//EN" "http://www.w3.org/Graphics/SVG/1.1/DTD/svg11.dtd">
<svg t="1531120721379" class="icon" style="" viewBox="0 0 1024 1024" version="1.1" xmlns="http://www.w3.org/2000/svg" p-id="3746" xmlns:xlink="http://www.w3.org/1999/xlink" width="36" height="36">
	<defs>
		<style type="text/css"></style>
	</defs>
	<path d="M713.549 65l-25.942 0L448.143 65 65 65l0 894 894 0L959 310.451 713.549 65zM368.321 96.929l287.356 0 0 223.5L368.321 320.429 368.321 96.929zM927.071 927.071 96.929 927.071 96.929 96.929l239.464 0 0 255.429 351.214 0L687.607 96.929l12.706 0 226.759 226.742L927.072 927.071z" p-id="3747" fill="#ffffff"></path>
	<path d="M328.41 639.714l367.179 0 0 31.929-367.179 0 0-31.929Z" p-id="3748" fill="#ffffff"></path>
	<path d="M328.41 751.464l367.179 0 0 31.929-367.179 0 0-31.929Z" p-id="3749" fill="#ffffff"></path>
	<path d="M591.821 216.66l31.929 0 0 79.822-31.929 0 0-79.822Z" p-id="3750" fill="#ffffff"></path>
</svg>