<?xml version="1.0" standalone="no"?><!DOCTYPE svg PUBLIC "-//W3C//DTD SVG 1.1//EN" "http://www.w3.org/Graphics/SVG/1.1/DTD/svg11.dtd"><svg t="1531189217597" class="icon" style="" viewBox="0 0 1049 1024" version="1.1" xmlns="http://www.w3.org/2000/svg" p-id="6665" xmlns:xlink="http://www.w3.org/1999/xlink" width="65.5625" height="64"><defs><style type="text/css"></style></defs><path d="M549.556706 48.199819C293.406118 48.199819 85.755367 255.85057 85.755367 512s207.650751 463.800181 463.801339 463.800181c256.14943 0 463.801339-207.650751 463.801339-463.800181S805.706136 48.199819 549.556706 48.199819zM858.352941 638.284452c-40.208217 0-73.935348-27.688543-83.190733-65.036742l-63.640905-13.091909C684.123511 619.253575 624.283222 660.247167 554.859729 660.247167a172.634353 172.634353 0 0 1-48.473195-6.910841l-20.647964 49.55743C499.87533 718.177303 508.524887 738.610968 508.524887 761.072941c0 47.341466-38.377991 85.719457-85.719457 85.719457s-85.719457-38.377991-85.719457-85.719457c0-46.08695 36.374009-83.665665 81.979077-85.62447l23.602968-56.646661C405.69629 587.145846 382.262443 540.136833 382.262443 487.649882c0-45.733647 17.794896-87.306425 46.829467-118.190914l-33.357611-47.979728A86.161955 86.161955 0 0 1 378.78733 323.162353c-47.341466 0-85.719457-38.377991-85.719457-85.719457s38.377991-85.719457 85.719457-85.719457 85.719457 38.377991 85.719457 85.719457c0 14.998588-3.862009 29.09133-10.631529 41.356163l34.451113 49.552796c20.476525-8.562679 42.95124-13.2981 66.533358-13.298099 95.322353 0 172.597285 77.273774 172.597285 172.597285 0 0.72514-0.018534 1.445647-0.026643 2.169629l61.400615 12.630878c15.567348-21.559602 40.898606-35.603692 69.523114-35.603693 47.341466 0 85.719457 38.377991 85.719457 85.719457S905.694407 638.284452 858.352941 638.284452z" p-id="6666" fill="#ffffff"></path></svg>