<?xml version="1.0" standalone="no"?><!DOCTYPE svg PUBLIC "-//W3C//DTD SVG 1.1//EN" "http://www.w3.org/Graphics/SVG/1.1/DTD/svg11.dtd"><svg t="1531189195638" class="icon" style="" viewBox="0 0 1024 1024" version="1.1" xmlns="http://www.w3.org/2000/svg" p-id="6495" xmlns:xlink="http://www.w3.org/1999/xlink" width="64" height="64"><defs><style type="text/css"></style></defs><path d="M529.795 648.143v223.253c0 3.931 1.5 7.863 4.5 10.86s6.93 4.5 10.86 4.5H658.07c3.93 0 7.862-1.5 10.86-4.5s4.5-6.93 4.5-10.86V573.88l-114.808 98.83-28.827-24.566zM47.283 871.397c0 3.931 1.5 7.863 4.5 10.86 2.999 3 6.93 4.5 10.86 4.5h112.9c3.93 0 7.862-1.5 10.86-4.5 3-2.998 4.5-6.93 4.5-10.86V643.65L47.282 762.117v109.28zM288.51 563.098v308.297c0 3.931 1.5 7.863 4.5 10.86 2.999 3 6.93 4.5 10.86 4.5h112.929c3.93 0 7.862-1.5 10.86-4.5 3-2.998 4.5-6.93 4.5-10.86V565.024l-71.78-61.119-71.869 59.193zM771.05 871.397c0 3.931 1.5 7.863 4.5 10.86s6.93 4.5 10.86 4.5h112.961c3.931 0 7.862-1.5 10.86-4.5s4.5-6.93 4.5-10.86V366.12l-143.68 123.712v381.565z" p-id="6496" fill="#ffffff"></path><path d="M746.276 104.488a5.12 5.12 0 0 0-3.59 8.77L850.634 219.4 558.62 470.836 360.378 301.98 46.46 560.937v111.86l313.918-258.945 198.242 168.83 352.73-303.65 89.191 87.717a5.119 5.119 0 1 0 8.71-3.65V109.607c0-1.31-0.5-2.62-1.5-3.621-1-1-2.311-1.5-3.62-1.5H746.275z" p-id="6497" fill="#ffffff"></path></svg>