<?xml version="1.0" standalone="no"?>
<!DOCTYPE svg PUBLIC "-//W3C//DTD SVG 1.1//EN" "http://www.w3.org/Graphics/SVG/1.1/DTD/svg11.dtd" >
<svg xmlns="http://www.w3.org/2000/svg" xmlns:xlink="http://www.w3.org/1999/xlink" version="1.1">
<metadata>
Created by FontForge 20170924 at Wed Jan 11 00:12:38 2017
 By www-data
Typeface ?(your company). 2016. All Rights Reserved
</metadata>
<defs>
<font id="S-engine" horiz-adv-x="2403" >
  <font-face 
    font-family="S-engine"
    font-weight="400"
    font-stretch="normal"
    units-per-em="2048"
    panose-1="2 0 5 0 0 0 0 0 0 0"
    ascent="1638"
    descent="-410"
    x-height="1668"
    cap-height="1645"
    bbox="-1 -203 2594 1799"
    underline-thickness="150"
    underline-position="-292"
    unicode-range="U+0033-012B"
  />
<missing-glyph horiz-adv-x="2299" 
d="M1190 1672h10l843 -792l-32 -47l-193 30v-669q-13 -191 -155 -191h-328l-21 25v307q0 95 -93 95h-80q-83 0 -83 -107v-118v-177l-22 -25h-328q-164 25 -164 191v686l-164 -46l-31 72z" />
    <glyph glyph-name=".notdef" horiz-adv-x="2299" 
d="M1190 1672h10l843 -792l-32 -47l-193 30v-669q-13 -191 -155 -191h-328l-21 25v307q0 95 -93 95h-80q-83 0 -83 -107v-118v-177l-22 -25h-328q-164 25 -164 191v686l-164 -46l-31 72z" />
    <glyph glyph-name=".null" horiz-adv-x="0" 
 />
    <glyph glyph-name="nonmarkingreturn" horiz-adv-x="682" 
 />
    <glyph glyph-name="three" unicode="3" 
d="M1179 1672h42q372 0 649 -329q169 -241 169 -477v-66q0 -316 -267 -584q-256 -222 -539 -222h-66q-343 0 -621 308q-185 244 -185 510v42q0 303 230 559q264 259 588 259zM1027 1536v-12q0 -8 13 -8q40 29 61 29v-9q-20 0 -20 -29v-4h8v-8l-12 4l-21 -4q0 6 -16 12
q-19 -7 -21 -16v-4q13 0 25 -21q0 -21 -13 -24h-8l-8 8l8 16l-25 9h-8v-5q13 0 13 -8q-5 -16 -17 -16l-82 8l-21 -12q-18 8 -20 16q0 10 16 12l66 -4q16 7 16 13v8q-41 4 -41 33q-131 -41 -296 -222q66 -51 95 -111l-4 -83q0 -61 70 -102q28 -53 82 -116v5q-45 60 -45 78v4
h8q73 -74 94 -128q70 -41 87 -41h4l25 4q43 -33 65 -33q9 0 50 -45l33 -12l16 4q21 -6 21 -29v-4l-33 -66q0 -37 -8 -37q17 -63 119 -148l4 -24q-16 -164 -37 -214l8 -33q0 -25 -25 -58v-4q13 0 13 -12l74 12l-8 12q16 21 33 66q9 0 28 21q54 0 54 49q34 0 66 54q16 5 37 57
q77 33 86 70q0 72 41 91l12 32q0 34 -111 50q-1 8 -28 12l-17 -12l-4 4v4l4 4v4h-4l-21 -4l-4 4l17 29q0 30 -87 54q-31 26 -65 37l-4 -5h-9q-12 0 -37 17l-24 -12l-25 8l-37 -25l-29 4l-25 -4q-24 9 -24 33v4l4 17q-6 19 -17 20l-16 -4q-25 8 -25 16l21 46l-4 4h-17
l-37 -33h-24q-35 0 -46 53q0 63 87 74l49 9q23 0 54 -50h8v4l-8 62l53 45l-4 21l45 45l37 33l29 21h16v-5q0 -9 -20 -12v-4h16l83 41h28l21 -4l-33 49q-12 0 -37 -49l-33 -12h-8l-12 12v12l4 4v5l-9 8l-49 -25h-4v12l20 21h46q49 0 82 29l-62 66q-15 40 -24 41h-9l-24 -25
h-4q-42 45 -54 45l-45 13h-4l-13 -13l17 -70v-4q-12 -20 -29 -20v-4l8 -33l-16 -9q-21 0 -21 38q-144 48 -144 78q0 29 83 74q0 24 33 24q37 0 37 54l4 4h24q20 0 66 -41v-8q-25 -33 -41 -33v-4q40 0 90 -33l21 -4q0 6 -16 12l-5 4v4l5 4l24 -8l9 8q0 7 -33 25v8l8 8l20 -20
h9l16 16v4q-32 0 -62 41l4 5q92 -55 99 -66v-4l-4 -4v-5h12l17 5q19 -8 20 -17v-4l-8 -12q13 0 13 -9v-8q0 -10 -37 -20v-9q13 0 16 -28q48 -70 74 -70h12q16 9 50 78q31 0 103 41h37v4q-130 150 -383 214l-41 -16v-9h12v-8q-4 -12 -24 -12l-62 4v8q62 21 62 33v8l-62 4h-54
q-136 0 -152 -37zM1163 1553q0 -13 -45 -13h-8v9zM1434 1380v-4l21 -4h4v4l-16 4h-9zM1870 1047l4 -21v-8l-4 -4q9 -24 37 -41l21 4l-25 99h-8zM1833 808l4 -45v-12l-4 -17q0 -35 83 -90l4 4q20 94 20 160v50l-4 82h-4q-13 -5 -37 -54q-26 -5 -62 -78z" />
    <glyph glyph-name="four" unicode="4" horiz-adv-x="2302" 
d="M1179 1663h53q371 0 824 -91v-304l-10 -9h-1686l-10 9v299q0 24 531 82q163 14 298 14zM360 1032h1686l10 -9v-379l-10 -10h-1686l-10 10v379zM360 413h1463l228 -5l5 -5v-308q0 -18 -391 -62q-234 -34 -472 -34q-387 0 -843 91v313z" />
    <glyph glyph-name="five" unicode="5" horiz-adv-x="2299" 
d="M994 1670q414 -188 433 -207v-1425l-13 -13q-373 170 -432 206v1427zM2044 1670l7 -6v-1433q-1 -12 -130 -90t-263 -141l-6 6v1439q2 9 392 225zM747 1644v-1437q0 -15 -393 -201h-6v1439q0 11 393 199h6z" />
    <glyph glyph-name="six" unicode="6" horiz-adv-x="2400" 
d="M544 1695h1329q86 0 155 -97q27 -52 27 -100v-956q0 -122 -120 -187q-38 -14 -71 -14h-459v-57q0 -65 -61 -78h-271q-51 0 -61 69v66h-459q-105 0 -168 105q-23 44 -23 88v968q0 108 110 174q42 19 72 19zM493 1491v-812q0 -49 54 -65h1319q58 10 58 72v799q0 75 -81 75
h-1267q-83 0 -83 -69zM1731 1409q53 0 63 -67v-2q0 -36 -57 -87q-235 -248 -243 -248l-28 -4q-34 0 -80 59l-97 99q-14 -18 -180 -326q-51 -99 -76 -99l-21 -4q-55 0 -78 93l-75 193q-137 -144 -144 -144q-17 -6 -31 -6q-61 14 -61 61v11q0 31 35 63q191 200 199 201l28 5
q53 0 76 -90l61 -160h2l200 361q20 20 44 24h4q37 0 78 -53l119 -121q224 233 228 233q16 8 34 8zM755 139h902q55 0 72 -55v-78l-4 -4h-1035l-4 4v59q29 74 69 74z" />
    <glyph glyph-name="seven" unicode="7" horiz-adv-x="2299" 
d="M1171 1670h45q470 0 741 -413q79 -172 79 -314q0 -417 -466 -653q-186 -73 -366 -73h-175l-332 -220l-6 6v320q-334 282 -334 600v47q0 338 360 574q213 126 454 126zM471 943q0 -309 332 -559v-214h8l212 161h126q516 0 714 380q53 109 53 206v39q0 389 -480 567
q-132 33 -240 33q-480 0 -686 -405q-39 -111 -39 -208zM744 1057h20q76 0 100 -114q-22 -112 -114 -112q-114 17 -114 92v41q0 75 108 93zM1191 1057h19q80 0 100 -120q0 -85 -114 -106q-112 17 -112 92v41q0 75 107 93zM1637 1057h19q80 0 101 -120q0 -85 -114 -106
q-112 17 -112 92v41q0 75 106 93z" />
    <glyph glyph-name="eight" unicode="8" horiz-adv-x="2400" 
d="M1167 1692h50q284 0 398 -339l7 -95q0 -252 -274 -389q-40 -22 -159 -29q-280 0 -405 304l-14 101v50q0 274 325 390zM799 919q233 -159 397 -159q161 0 390 159q260 0 353 -325q30 -132 37 -311q-28 -288 -282 -288h-1011q-267 38 -267 260v79q0 494 318 578z" />
    <glyph glyph-name="nine" unicode="9" horiz-adv-x="1782" 
d="M412 1688h1152l8 -8v-515l-8 -9h-91l-10 9v414h-834v-4q415 -199 415 -212v-946h419v311l10 8h91l8 -8v-411l-8 -9h-520v-315h-4q-18 0 -636 315v1372zM1675 1260h4l317 -316l-317 -315l-4 4v203h-523l-8 9v198l8 9h523v208z" />
    <glyph glyph-name="colon" unicode=":" horiz-adv-x="1805" 
d="M1174 1696h64q277 0 536 -215q280 -270 280 -631q0 -421 -372 -702q-228 -145 -478 -145q-328 0 -587 240q-154 160 -202 303q-54 156 -54 273v64q0 302 249 570q267 243 564 243zM634 914v-14q0 -41 88 -47h57l7 -7v-428q18 -57 57 -57h220v195q7 85 71 85h138
q77 -6 77 -71v-209h216q64 0 64 101v384l7 7h54q91 0 91 54q0 49 -196 199q-295 263 -316 263q-32 10 -58 10h-10q-76 0 -176 -101q-333 -283 -377 -330z" />
    <glyph glyph-name="semicolon" unicode=";" horiz-adv-x="1709" 
d="M1170 1698h41q449 0 733 -442q99 -204 99 -390v-52q0 -396 -384 -687q-232 -134 -437 -134h-52q-449 0 -733 442q-99 202 -99 390v41q0 449 442 733q202 99 390 99zM944 1133q0 -242 202 -360l47 -6q158 0 239 285l5 53v57q0 164 -191 228l-64 6q-159 0 -227 -181z
M1367 784q-60 -75 -156 -75h-35q-81 0 -162 70q-274 -120 -274 -199q-36 -59 -36 -162h978q0 213 -162 291z" />
    <glyph glyph-name="semicolon" unicode="&#x37e;" horiz-adv-x="1709" 
d="M1170 1698h41q449 0 733 -442q99 -204 99 -390v-52q0 -396 -384 -687q-232 -134 -437 -134h-52q-449 0 -733 442q-99 202 -99 390v41q0 449 442 733q202 99 390 99zM944 1133q0 -242 202 -360l47 -6q158 0 239 285l5 53v57q0 164 -191 228l-64 6q-159 0 -227 -181z
M1367 784q-60 -75 -156 -75h-35q-81 0 -162 70q-274 -120 -274 -199q-36 -59 -36 -162h978q0 213 -162 291z" />
    <glyph glyph-name="less" unicode="&#x3c;" horiz-adv-x="2998" 
d="M1467 1699h55q259 0 514 -183q235 -180 325 -471q32 -126 32 -223v-50q0 -288 -211 -555q-134 -143 -186 -168q-235 -154 -478 -154h-51q-287 0 -553 210q-144 136 -168 188q-154 235 -154 479v55q0 259 183 515q180 235 470 325q126 32 222 32zM1393 1300v-203h213v203
h-213zM1396 927v-644h210v644h-210zM1277 1526q-252 -75 -408 -273q-159 -214 -159 -431v-46q0 -204 134 -401q21 -44 146 -158q231 -176 480 -176h45q211 0 415 129q45 21 162 141q183 224 183 465v42q0 81 -28 187q-78 244 -282 394q-222 154 -447 154h-48q-83 0 -193 -27
z" />
    <glyph glyph-name="equal" unicode="=" horiz-adv-x="1789" 
d="M1200 1693q25 0 259 -103q637 -259 665 -276q38 -30 38 -71v-5q0 -72 -101 -101q-783 -325 -850 -349l-18 -3q-26 0 -183 71q-694 284 -746 309q-37 32 -37 68v13q0 67 113 101q795 332 842 346h18zM318 938q28 0 167 -63l711 -291q830 344 857 352l18 2q66 0 88 -71
l3 -20v-1q0 -74 -101 -102q-785 -327 -850 -350l-18 -2q-25 0 -191 73q-679 279 -737 306q-38 32 -38 70v9q0 59 65 84q8 4 26 4zM318 546q28 0 165 -64l710 -291h4q824 342 856 352l18 3q64 0 88 -71l3 -21v-1q0 -74 -105 -102q-785 -330 -850 -351h-14q-26 0 -129 45
q-738 306 -803 335q-34 33 -34 71v7q0 60 71 85z" />
    <glyph glyph-name="greater" unicode="&#x3e;" horiz-adv-x="2302" 
d="M1531 1647q307 0 482 -123q26 -38 26 -52v-105q0 -112 -348 -168q-83 -15 -231 -15h-11l-127 56q-110 38 -347 56q-45 38 -45 87v77q0 143 471 187h130zM901 1242q317 0 496 -109q52 -37 52 -93v-56q0 -111 -194 -161q-149 -44 -317 -44h-90q-270 0 -451 100
q-56 38 -56 79v108q0 91 306 157q134 19 254 19zM2031 1194h8v-123q0 -111 -344 -168q-93 -15 -231 -15v4q22 40 22 120v55q0 12 198 19q251 37 347 108zM2031 838h8v-123q0 -118 -389 -175l-137 -7h-41l-8 7q22 25 22 90v82q0 10 198 18q252 37 347 108zM1445 719l4 -4v-97
q0 -111 -179 -157q-166 -52 -373 -52q-376 0 -538 134q-18 28 -18 49v123h8q190 -116 507 -116h74q320 0 515 120zM2031 472h8v-123q0 -122 -400 -175l-171 -8l-8 8q26 0 26 115v56q0 10 198 19q252 38 347 108zM1445 343l4 -4v-97q0 -110 -179 -157q-163 -52 -381 -52
q-345 0 -518 123q-30 32 -30 60v123h8q190 -116 507 -116h74q322 0 515 120z" />
    <glyph glyph-name="question" unicode="?" horiz-adv-x="1744" 
d="M1176 1693h39q464 0 744 -473q79 -188 79 -327v-91q0 -370 -366 -659q-232 -141 -434 -141h-91q-365 0 -654 361q-146 232 -146 462v39q0 491 502 761q172 68 327 68zM522 875v-50q0 -310 287 -530q188 -124 384 -124q364 0 591 349q85 180 85 328q0 350 -327 574
q-164 96 -327 96h-50q-322 0 -553 -327q-90 -176 -90 -316zM1458 1270h21q39 0 125 -113v-33l-130 -130l-146 147zM1288 1107l147 -146v-7l-440 -439h-5l-147 141v5zM798 616h11l141 -141v-5l-192 -45l-5 5z" />
    <glyph glyph-name="at" unicode="@" horiz-adv-x="1797" 
d="M1177 1691h25q316 0 574 -236q259 -262 259 -605v-9q0 -328 -240 -586q-261 -255 -601 -255h-9q-325 0 -580 234q-135 140 -171 232q-90 177 -90 367v25q0 316 234 572q121 119 220 167q189 94 379 94zM499 846v-1q0 -272 197 -482q212 -208 496 -208q264 0 474 192
q214 214 214 501q0 277 -208 491q-210 197 -482 197h-1q-309 0 -528 -246q-162 -199 -162 -444zM1247 1344h6q68 0 95 -75l2 -19v-13q0 -55 -66 -88l-35 -5q-72 0 -98 83l-1 15q0 72 75 99q7 3 22 3zM1136 1061q150 0 182 -54q16 -27 16 -60v-13q0 -43 -56 -167
q-84 -206 -84 -221v-20q0 -76 87 -112q54 -16 54 -37q0 -34 -177 -60l-34 -1h-35q-122 0 -143 72l-5 42q0 47 56 167q92 236 92 244l3 17q0 83 -92 117q-79 18 -79 41q0 28 207 45h8z" />
    <glyph glyph-name="A" unicode="A" horiz-adv-x="1766" 
d="M1171 1685h14q145 0 271 -209q41 -75 81 -194l23 -85q148 -36 229 -78q257 -132 257 -295v-16q0 -148 -217 -275q-73 -41 -206 -83q-76 -18 -81 -22q-31 -109 -70 -186q-130 -239 -287 -239h-16q-148 0 -274 215q-36 62 -73 172q-14 57 -19 57q-23 0 -174 62
q-265 132 -265 304v11q0 148 222 278q102 52 204 81l23 87q36 114 85 206q127 209 273 209zM921 1209q136 27 278 27h39q96 0 215 -16q-37 131 -79 208q-89 144 -179 144h-16q-90 0 -178 -146q-36 -69 -65 -156zM878 843q0 -154 30 -306q158 -30 307 -30q131 0 251 21
q30 162 30 317q0 135 -21 258q-133 22 -260 22q-157 0 -317 -31q-20 -132 -20 -251zM1591 1079q16 -112 16 -212v-46q0 -121 -24 -270h2q97 23 190 67q169 92 169 192v8q0 133 -248 230q-44 17 -105 31zM488 822v-7q0 -144 283 -243l19 -5v2q-23 131 -23 268v14
q0 106 14 212q-49 -9 -174 -77q-119 -81 -119 -164zM938 418q9 -55 79 -182q81 -120 162 -120h16q100 0 190 169q49 109 49 125h-1q-99 -14 -208 -14h-19q-134 0 -268 22z" />
    <glyph glyph-name="B" unicode="B" horiz-adv-x="2400" 
d="M370 1010q0 138 54 264.5t145.5 218t218 145.5t265 54t264.5 -54t217 -145.5t146 -218t55 -264.5q0 -199 -110 -369l423 -422q10 -10 10 -25t-10 -27l-153 -153q-11 -9 -26.5 -9t-25.5 9l-422 423q-168 -110 -368 -110q-139 0 -265.5 55t-218 146t-145.5 217.5t-54 264.5
zM586 1010q0 -94 37.5 -180.5t100 -148.5t148 -99t180.5 -37t181 37t148.5 99t99.5 148.5t37 180.5q0 95 -37 180.5t-99.5 148t-148.5 100t-181 37.5t-180.5 -37.5t-148 -100t-100 -148t-37.5 -180.5z" />
    <glyph glyph-name="C" unicode="C" horiz-adv-x="2400" 
d="M2052 1692h13q109 0 171 -121q16 -39 16 -79q0 -126 -127 -189q-39 -12 -68 -12q-30 3 -48 8l-338 -354l5 -44v-15q0 -114 -117 -177q-38 -16 -74 -16h-4q-119 0 -179 129q-11 34 -11 61v16l5 48l-245 251l-48 -8l-49 8l-433 -453q5 -23 5 -43v-15q0 -106 -108 -172
q-43 -18 -82 -18h-3q-126 0 -187 138q-9 31 -9 55v12q0 103 101 168q43 23 86 23h9l47 -6l437 455q-8 35 -8 53q0 128 129 189q35 10 57 10h15q101 0 168 -111q18 -43 18 -91l-5 -52q242 -246 242 -250q31 8 50 8q21 0 50 -8l339 354q-8 23 -8 52q0 119 121 183q35 13 67 13
zM145 257h2095l4 -3v-170l-4 -3h-2095l-4 3v170z" />
    <glyph glyph-name="D" unicode="D" 
d="M1187 1695h15q39 0 58 -54v-143h2l2 8q67 -7 67 -16q-10 -52 -14 -58l-57 8v-73q-9 -63 -65 -63h-8q-38 0 -56 47l-2 14v67l-7 72l7 2v133q0 41 58 56zM1054 1494q4 -6 15 -62q-6 -4 -61 -16h-2l-19 60q19 10 67 18zM1400 1477q54 -18 64 -27q-16 -40 -29 -58
q-54 21 -56 26q16 56 21 59zM639 1467q38 0 88 -60l45 -45l30 20l38 -49v-7q-6 0 -17 -12q68 -65 68 -87v-10q0 -45 -50 -65l-16 -1q-36 0 -84 57l-14 13l-19 -23h-3l-49 38v1l23 31q-102 101 -102 110l-5 23q10 66 67 66zM1754 1467q40 0 60 -51v-17q0 -36 -58 -83
q-157 -162 -169 -162l-23 -3q-66 9 -66 63v10q0 28 68 88q146 149 159 150q9 5 29 5zM922 1450h3l24 -58l-56 -29l-33 56q22 17 62 31zM1529 1421l54 -35v-6l-37 -49l-52 34q29 55 35 56zM1732 1237q7 -6 39 -58l-56 -33l-36 52zM618 1177q54 -29 54 -35q-21 -38 -25 -52h-2
q-60 23 -60 27q25 54 33 60zM1802 1117q25 -52 25 -65l-63 -20l-22 58q52 27 60 27zM562 1051q61 -17 61 -23l-17 -58q-63 11 -63 19q14 62 19 62zM1843 986q6 0 13 -70h117q52 0 71 -48q4 -8 4 -23q0 -43 -54 -60l-21 -2h-113l-5 -6q-46 6 -80 6h-52q-48 0 -67 40
q-6 10 -6 30q0 44 56 63h84l-9 56zM411 916h255q53 0 71 -49l2 -15q0 -61 -73 -69h-69l11 -59q-4 -5 -65 -15q-10 36 -10 68l44 5v1h-157q-57 0 -75 40q-4 8 -4 22v8q0 40 54 61zM1783 724q63 -13 63 -17q-12 -56 -20 -65l-62 21zM623 661l22 -58l-58 -27q-25 48 -25 66
q52 19 61 19zM1744 603q58 -20 58 -29q-25 -53 -33 -58l-54 33zM825 549q66 -10 66 -66q0 -39 -68 -96q-147 -151 -161 -151q-8 -4 -23 -4q-67 11 -67 67q0 34 59 83q157 162 171 163zM1564 549q36 0 96 -70l2 -2h3l12 19q12 0 56 -40l-20 -26q99 -99 99 -111l2 -18v-11
q0 -38 -53 -58h-13q-36 0 -86 60l-46 44q-22 -23 -33 -23l-35 50v4l10 6l13 9q-71 68 -71 82l-2 10v11q0 54 66 64zM676 547l32 -49v-2l-51 -38h-1q-29 34 -38 58q51 31 58 31zM1202 396q38 0 56 -50l2 -15v-78l4 -63l-4 -3v-118q-10 -71 -68 -71q-43 0 -63 58v149h-2
q0 -16 -5 -16q-66 6 -66 13q10 61 16 61q38 -8 57 -8v85q16 56 56 56h17zM841 363h2q50 -32 50 -35q-28 -53 -33 -54q-16 7 -56 37v2zM1496 330l31 -56q-21 -17 -63 -31q-24 52 -24 59zM954 301l55 -23q-17 -61 -24 -61q-54 18 -60 26q21 58 29 58zM1379 280q4 0 21 -63
q-16 -8 -67 -18l-15 62z" />
    <glyph glyph-name="E" unicode="E" 
d="M304 1689h929l4 -4v-211l-4 -4h-712v-705l-4 -4h-213l-4 4v920zM579 1416h927l4 -4v-360q0 -4 -5 -4q-153 0 -304 -112q-181 -163 -181 -381l7 -63l-3 -3h-445l-3 4v919zM1520 976h20q136 0 260 -98q148 -133 148 -314v-9q0 -117 -67 -224q7 0 192 -190q16 -23 16 -45
v-12q0 -57 -71 -81l-18 -1q-48 0 -101 64q-142 139 -142 143q-107 -66 -223 -66h-13q-195 0 -331 167q-82 115 -82 234v31q0 163 141 299q125 102 271 102zM1240 556q0 -139 126 -231q74 -50 164 -50q143 0 236 127q50 75 50 158q0 143 -132 238q-73 47 -159 47
q-140 0 -234 -125q-51 -73 -51 -164zM1699 718l2 -2v-2l-6 -63v-4q0 -24 12 -54q-86 -31 -213 -200h-3q-23 29 -66 64q-62 48 -90 51v5l104 55l50 -86q89 176 210 236z" />
    <glyph glyph-name="F" unicode="F" 
d="M617 1697h560l4 -5v-156l222 -255q200 -40 277 -79q93 -32 139 -115q21 -49 21 -88v-25q0 -169 -291 -415l-63 -44v323h-3q-550 -495 -572 -512q-20 -10 -40 -10h-16q-33 0 -102 89q-382 417 -389 433l-5 26v5q0 47 79 105l175 159v559zM708 1602v-385q353 319 373 332h5
v53h-378zM469 882v-4q0 -11 42 -54q346 -384 365 -402h7q17 0 58 42l545 489v92q-283 317 -305 336v-245l-4 -5h-87l-4 5v306l-615 -550zM1894 473q104 0 155 -112q8 -32 8 -56q0 -83 -163 -305h-3q-158 208 -164 305v2q0 115 122 159zM1838 305q0 -43 56 -51h2q42 0 51 55
q0 42 -56 54q-53 -12 -53 -54v-4zM336 176h1331l5 -4v-169l-5 -5h-1331l-5 5v169z" />
    <glyph glyph-name="G" unicode="G" horiz-adv-x="3002" 
d="M1473 1633h27q125 0 175 -147l5 -23q69 63 139 63h22q134 0 180 -140l4 -43l-8 -66l76 13q129 0 185 -143l4 -40v-4q0 -62 -148 -330q-109 -223 -109 -240q0 -68 -116 -348v-164q0 -50 -13 -50h-678q-14 3 -14 36v164q-115 100 -152 179q-231 174 -302 254q-22 39 -22 80
v31q0 90 117 148q24 13 76 17q75 0 197 -98q-152 477 -161 529q0 136 161 184h46q120 9 176 -197q-57 307 133 335zM1386 1446q58 -597 38 -597q-63 112 -140 360q-53 237 -158.5 217.5t-79.5 -112.5q174 -525 199 -617v-9q-7 -76 -63 -76q-30 0 -221 148l-27 9h-22
q-71 -14 -71 -63v-22q0 -40 134 -134q109 -81 185 -209q39 -47 126 -121l9 -164h506l6 72v92q48 99 93 259q9 100 76 223q246 362 213.5 421.5t-100.5 59.5q-69 0 -113 -129l-98 -191l-18 -14q-23 0 -6 50q168 487 41.5 541.5t-170.5 -121.5q-88 -495 -90 -416
q-4 -10 -24 150q-17 272 -31 456q-48 80 -116.5 64t-77.5 -127z" />
    <glyph glyph-name="H" unicode="H" horiz-adv-x="2995" 
d="M934 1644h2l1129 -1129v-2h-510l187 -468l-232 -97q-197 486 -197 493l-374 -248h-5v1451z" />
    <glyph glyph-name="I" unicode="I" horiz-adv-x="2998" 
d="M228 1645h2l1117 -1116v-3h-504l185 -462l-230 -97q-195 481 -195 488l-370 -246h-5v1436zM1365 24v226v203q-12 90 70 101l430 -2h405q92 1 94 -104v-198v-222q0 -80 -94 -80h-405h-401q-99 0 -99 76zM1571 48h298h302q69 0 69 54v150l2 135q-3 70 -71 70h-302l-320 1
q-60 -7 -51 -68v-138v-153q0 -51 73 -51z" />
    <glyph glyph-name="J" unicode="J" horiz-adv-x="2998" 
d="M405 1639h2l1090 -1090v-2h-492l180 -451l-224 -94q-190 469 -190 476l-361 -240h-5v1401zM2166 -45q-179 0 -304.5 126t-125.5 304q0 177 125.5 302.5t304.5 125.5q177 0 302.5 -125.5t125.5 -302.5q0 -178 -125.5 -304t-302.5 -126zM2401 148q98 98 98 237
q0 138 -98 235.5t-235 97.5q-139 0 -237 -97.5t-98 -235.5q0 -139 98 -237t237 -98q137 0 235 98z" />
    <glyph glyph-name="K" unicode="K" horiz-adv-x="2998" 
d="M413 1643h2l1079 -1079v-2h-487l179 -447l-223 -93q-188 464 -188 471l-357 -237h-5v1387zM2114 873h2l462 -311v-617l-464 151l-464 -151v617zM2111 792l-383 -307v-463l386 155l385 -153h2v459q-382 309 -390 309z" />
    <glyph glyph-name="L" unicode="L" horiz-adv-x="3002" 
d="M1370 1631h19q293 0 520 -235q178 -212 178 -464v-16q0 -228 -168 -445q404 -401 404 -409q9 -22 9 -37v-5q-7 -31 -24 -44q-9 -4 -25 -4q-49 0 -109 73l-342 340q-212 -168 -450 -168h-4q-331 0 -556 271q-149 197 -149 427v19q0 281 214 499q216 198 483 198zM792 933
v-8l-1 -8l1 -9v-8q0 -203 159 -383q186 -186 411 -186h30q162 0 321 107q135 102 190 221q60 126 60 243v30q0 225 -186 411q-180 159 -383 159h-33q-224 0 -410 -186q-159 -178 -159 -383zM1393 1249q48 -6 56 -68v-214h207q75 -5 73 -66q-8 -45 -76 -46h-204v-204
q3 -63 -39 -76h-23q-43 6 -50 63v217h-204q-73 3 -75 54q-1 53 73 58h206v208q0 51 40 72z" />
    <glyph glyph-name="M" unicode="M" horiz-adv-x="2995" 
d="M1360 1631h19q293 0 520 -235q178 -212 178 -464v-16q0 -228 -168 -445q404 -401 404 -409q9 -22 9 -37v-5q-7 -31 -24 -44q-9 -4 -25 -4q-49 0 -109 73l-342 340q-212 -168 -450 -168h-4q-331 0 -556 271q-149 197 -149 427v19q0 281 214 499q216 198 483 198zM782 933
v-8l-1 -8l1 -9v-8q0 -203 159 -383q186 -186 411 -186h30q162 0 321 107q135 102 190 221q60 126 60 243v30q0 225 -186 411q-180 159 -383 159h-33q-224 0 -410 -186q-159 -178 -159 -383zM1646 967q75 -5 73 -66q-8 -45 -76 -46h-520q-73 3 -75 54q-1 53 73 58h525z" />
    <glyph glyph-name="N" unicode="N" horiz-adv-x="2372" 
d="M464 1688h1102q114 0 193 -108q41 -58 41 -145v-287q0 -44 -41 -63l-21 -2q-61 10 -61 59v301q0 85 -83 118q-16 5 -29 5h-1106q-45 0 -87 -48q-23 -34 -23 -62v-1105q0 -70 80 -107q21 -6 43 -6h542q59 -9 59 -60v-3q0 -53 -65 -60h-527q-173 0 -241 163q-13 40 -13 71
v1102q0 132 130 211q53 26 107 26zM1384 1325q32 0 50 -41q2 -7 2 -20q-7 -59 -58 -59h-731q-40 0 -57 47v21q0 34 48 52h746zM656 964h347q53 0 68 -42q2 -6 2 -18v-4q0 -44 -50 -58h-375q-58 9 -58 56v12q12 54 66 54zM1618 964q202 0 342 -173q81 -117 81 -242v-23
q0 -118 -81 -235v-3q193 -193 193 -198q6 -13 6 -31q-10 -61 -59 -61h-8q-32 0 -87 64l-137 137q-116 -84 -250 -84q-209 0 -345 179q-79 111 -79 244v2q0 216 190 352q109 72 234 72zM1317 547v-16q0 -143 136 -245q81 -48 166 -48q167 0 266 159q33 71 33 132v20
q0 143 -136 245q-81 48 -166 48q-157 0 -256 -147q-43 -76 -43 -148zM892 601q61 -9 61 -63q0 -42 -46 -58l-18 -1h-238q-44 0 -61 47v21q0 36 52 54h250z" />
    <glyph glyph-name="O" unicode="O" horiz-adv-x="3002" 
d="M1169 1249l-54 54l161 161l55 -55zM2256 375l-1196 1191l-331 -331l1196 -1190zM1926 -102l-1344 1338l461 460l1344 -1338zM1371 1045l-55 55l162 160l55 -54zM1547 761l-55 54l216 215l55 -54zM1825 593l-55 55l161 160l54 -54zM2015 404l-55 55l161 160l54 -54z" />
    <glyph glyph-name="P" unicode="P" horiz-adv-x="3002" 
d="M1940 1607q25 -18 350 -630q48 -70 48 -96v-295l-14 -14h-1658l-14 14v295q12 45 391 726h897zM1118 1484l-343 -672v-116h1446v171q0 18 -349 617h-754zM1460 1408q117 8 185.5 -63t60 -161.5t-169.5 -200.5q0 -68 -14 -68h-96l-13 14v109q15 24 74 30q102 65 85.5 141
t-98.5 76t-116 -117l-7 -6h-96l-14 13q32 233 219 233zM1460 860h14q62 -9 62 -61v-7q-9 -62 -62 -62q-52 0 -61 69q11 46 47 61zM652 -16v477h1679v-477h-1679zM2262 58v329h-1541v-329h1541zM952 240v213h88v-213h-88zM1212 240v213h88v-213h-88zM1472 124v329h88v-329
h-88zM1732 240v213h88v-213h-88zM1992 240v213h88v-213h-88z" />
    <glyph glyph-name="Q" unicode="Q" horiz-adv-x="2995" 
d="M2067 1627h17q24 0 101 -87q144 -136 144 -152l3 -21q0 -31 -66 -86l-303 -306l300 -306l6 -25q0 -35 -73 -96q-578 -582 -585 -582l-26 -6q-35 0 -95 72q-799 794 -822 825l-3 14v21q0 24 95 109q552 557 560 557l23 6h8q33 0 116 -96l210 -207l358 354q15 12 32 12z
M1677 1108q-35 0 -109 86l-222 220l-176 -176l773 -770l176 176q-300 294 -300 302l-6 23v15q0 24 89 104l280 282l-110 107q-364 -363 -369 -363zM1080 1151l-268 -271l118 -115q99 109 127 109h15q54 -10 54 -55v-11q0 -32 -92 -113l-17 -20l138 -135q159 158 168 158
l23 3q51 0 60 -63q0 -36 -109 -133l-52 -55l135 -135q99 109 127 109h15q40 0 54 -52v-17q0 -27 -109 -127v-3l118 -115l268 268z" />
    <glyph glyph-name="R" unicode="R" 
d="M1182 1676h43q244 0 477 -163q112 -84 194 -199q149 -225 149 -479q0 -308 -212 -558q-109 -112 -168 -145q-216 -139 -462 -139q-345 0 -608 260q-109 122 -150 216q-83 178 -83 344v39q0 279 195 523q88 97 131 126q237 175 494 175zM717 1387v-5l2 -2v-1l8 1h5l4 -3
v-3q-9 0 -9 -4q0 -6 -3 -6l-26 6l-5 -6q0 -11 44 -16q24 3 24 9l-2 1l-3 7q-7 0 -7 4l7 3l19 -2v2q0 20 17 20l5 5q4 0 27 -30l10 -3q1 6 5 6q6 -6 12 -25q14 4 14 25l-2 7l2 2l6 -2l9 2v-4h14l5 -5v-15q0 -11 -21 -19l-1 -1v-4q0 -2 27 -18v-2l-19 2l-22 -4h-8v4
q13 2 13 22l-5 1q-12 0 -20 -20h-9l-2 2q-12 -9 -35 -14q-5 -5 -7 -17q2 -25 12 -25q15 -21 20 -21q34 0 49 -20h12l5 3q11 -5 21 -39l-4 -3h12l9 1v4l-5 17l-4 3v7q0 4 7 5l2 -2h2q11 4 11 7v2l-3 3l2 12v12q0 3 -12 9v1l3 5v6l-1 20l1 2l34 -6h2l8 7q5 -10 19 -10
q0 -4 22 -24l2 -6l-2 -2l9 -2h1q19 8 19 21h2q3 -1 17 -28q27 -24 27 -34l7 5h5q0 -6 10 -10l5 -8l-5 -2v-8l-7 -6l-19 4v-2q0 -9 -20 -13l-30 3q-28 0 -48 -42h2l30 15l22 8l2 -1v-2l-8 -2v-7l17 -22q0 -12 -24 -17h-2l-2 2v2l11 3v2l-4 5q-20 -2 -36 -17q-8 -27 -22 -27
q-19 -16 -25 -46q-11 -20 -26 -29q-20 -18 -20 -30q5 0 10 -51l-10 -4l-19 43l-1 1h-2l-17 -1q-1 6 -29 8v-2l4 -8q-10 -7 -16 -7l-20 10q-36 0 -36 -51v-12q0 -36 32 -54l7 -10h5l9 8l-4 7q3 8 11 12l5 -2l25 16l4 -5q-15 -11 -21 -45q4 -5 4 -13h28q0 5 4 5l5 -12l-2 -14
q3 0 10 -28q5 0 11 -19h10q5 0 17 8q9 0 10 -17h2q12 0 12 23l20 8q3 7 12 7l3 -4l22 9q12 -22 22 -22h19l12 2q21 -16 27 -26q5 0 12 -12l20 -7l11 2q16 0 30 -46l-2 -13l2 -12h12q0 5 3 5q12 -5 21 -17h3v5h5q7 -2 7 -15l-2 -9l46 15q37 0 53 -42v-17q0 -32 -48 -49l-3 -5
v-7q0 -82 -49 -99q0 -4 -22 -12q-11 -4 -11 -39q0 -7 -17 -23q-21 0 -27 -36l-23 -19v-18q-20 -11 -40 -16q-6 -6 -6 -13l-7 -9l-10 2l3 -14q0 -10 -15 -22q-9 -9 -12 -30l2 -5l6 5l4 -4l-22 -27v-2q107 -25 192 -25q329 0 565 265q51 66 51 76l5 36h4l5 -3h3v5q-5 0 -5 3v4
l5 5l14 -4l5 9l-2 1v5q9 8 10 17q12 12 34 79q41 114 41 242v2h-2q0 -6 -40 -32l-28 -10q-2 -5 -32 -17h-3q-13 0 -24 25q-6 3 -17 43l-20 44q-20 38 -41 63l-4 5v3h11q9 0 11 9q-5 0 -5 3v2q14 31 14 49h-2q-17 -2 -17 -7l-20 5l-26 -1q-17 16 -17 40q-9 5 -22 5l-1 -1v-2
l5 -25l-10 -16q-14 6 -14 19l-15 22l1 10q0 8 -25 17q-23 24 -31 24l-1 -2v-5q0 -4 17 -15q5 -14 17 -14q0 -8 3 -8q7 0 12 -10v-2h-2l-10 3q0 -25 -8 -25q-5 39 -29 39q-13 7 -26 27l-24 -10l-25 2q-23 -72 -44 -72l-24 -1q-25 10 -25 32q3 44 8 44l3 -5l9 2h15l7 5h3l6 -5
l-2 -6h10q8 0 10 7q-5 0 -5 4v3l3 5v5q0 9 -23 34v2l15 -3h5l2 1h1l-1 2v5h1l9 -5h3q0 5 11 8v2h-4v12l2 2v1l2 -1h6q1 12 5 12l6 -2q4 10 32 17v2q-7 7 -7 28l22 9q3 -20 7 -20h7v11q-8 0 -12 24l-17 -5q-31 0 -43 24v5l4 3h8q0 8 43 17q10 7 10 12q-4 0 -4 5q33 48 72 48
q9 5 47 10l28 -2q-104 96 -228 145q-135 51 -268 51q-266 0 -486 -184zM1282 1362h46q33 -2 33 -24v-5q0 -22 -28 -26h-54q-24 6 -24 26v3q0 22 27 26zM1444 1255l3 -4q-4 0 -7 -11h4l12 6l1 -1l-5 -9v-3l22 -26l2 -7v-10h3q0 5 4 5l3 -3q-11 -15 -25 -15h-10q-3 0 -5 8
l-9 -2h-5v4q0 13 10 13h7q-6 19 -12 19q-12 0 -12 22v4q0 3 14 5zM1405 1223l7 -4l11 2l2 -2v-2q-8 -32 -29 -32h-1l-6 5l4 14l-2 2l15 8l-5 5zM1437 1173v-1l-3 -4l-4 4l2 1h5zM535 1143q-68 -154 -68 -309q0 -281 204 -506q107 -103 185 -140q28 -17 94 -42v3q0 39 10 65
q5 13 5 24v6l-2 19q17 33 17 59q0 36 7 48l5 65q0 29 -19 42q-23 0 -34 51q-5 22 -27 54l-10 10v6l9 23l-6 7v10q0 18 19 38l5 -4h2q4 0 5 9h-2l-3 3v29q0 13 -9 20h-3q-3 0 -7 -10h-1q-38 5 -38 29q-17 15 -17 24q-8 14 -49 27q-13 17 -39 17q-68 22 -68 36q-5 38 -15 54
l-21 19q-10 3 -29 37l-8 7h-5v-2q42 -59 42 -75q0 -3 -5 -3q-27 16 -27 32q-4 0 -24 48l-10 27q-5 5 -19 5q-14 18 -28 48q-11 0 -12 83l-2 7h-2zM1712 1133q-19 -34 -19 -45v-3q6 -6 6 -10h3q24 0 54 5l5 -7h2q0 5 3 5q11 -10 17 -10h7q16 3 16 9q-10 25 -23 25q0 8 -32 14
q-3 -7 -12 -7q-10 11 -10 17q-3 7 -12 7h-5zM1873 1131l-17 -12q-3 -7 -3 -19h3v-3q-22 -6 -22 -22v-7q0 -19 29 -22q7 0 14 -9l13 -11l12 -2q5 1 7 7q-7 0 -7 5q0 10 14 10q17 0 22 27q0 20 -25 24h-28q-5 0 -8 17l5 2q-6 15 -9 15zM1541 1092v-4l-4 -6h-5l-2 8zM1536 1075
h1l4 -4v-3q0 -9 -7 -12h-4l-3 4v10l3 3h4v-3h2v5zM1568 1043l10 -6l10 4q-2 -10 -5 -10q-9 0 -20 10l1 2h4zM1498 1034l44 -5l4 3q21 -28 23 -49h2l14 2q0 -10 27 -12q34 0 34 13h7q5 -2 10 -13q50 0 61 -17q11 -13 12 -26q13 -14 20 -37l19 -32q12 -8 12 -21q7 -9 27 -57
l19 -22l-4 -4h4q17 0 52 7l2 -2v-1q-20 -62 -27 -62q0 -3 -49 -56l-24 -30l2 -2v-2l-4 -45q12 -29 12 -53q-11 -44 -24 -44q-17 -11 -17 -43q-4 -37 -15 -57q-32 -26 -32 -41q-16 -26 -26 -26q-45 -11 -64 -11q-6 0 -14 37q-25 47 -36 103q-17 45 -17 62l11 68v5
q0 33 -24 57l-7 22q9 13 9 40v8l-21 3h-10q-8 9 -25 9q-45 0 -60 -7q-30 0 -61 32l-25 45l-11 30l5 12l-5 25q5 15 9 48q18 38 25 39q9 5 26 29l-2 5q9 28 15 32l7 -1q4 9 24 20l12 -2l32 16zM1890 929l-1 7h-2v-21q3 -27 27 -27q24 7 24 27q-5 24 -22 24h-7q-7 0 -19 -10z
M878 886l2 -1l3 -4l5 2v-2q0 -2 -6 -5q-7 3 -7 5v2zM921 886q37 -15 37 -27l-2 -2h-8q-13 0 -27 14q-19 5 -19 10zM972 852h1l21 -5v5q10 0 15 -12l-2 -1h-1l-22 1l-12 -3l-12 2v3h15v2zM928 844q6 -2 6 -7h2q0 5 3 5h4v-7h-15l-4 4v1zM1029 844h2l4 -4l-6 -3l-3 3zM989 783
l1 -2v-2l-1 -1h-2l-2 1v2l2 2h2z" />
    <glyph glyph-name="S" unicode="S" 
d="M1176 1692h19q80 0 204 -69q847 -378 882 -401q31 -26 31 -50v-12q0 -42 -106 -88q-880 -475 -923 -491q-52 -16 -97 -16q-95 0 -200 68q-861 457 -900 482q-27 26 -27 48v9q0 48 112 90q908 414 929 420q41 10 76 10zM623 1150q0 -30 75 -60q420 -226 445 -236
q26 -7 43 -7q51 0 147 61q379 198 409 220l7 20q0 31 -106 68q-383 178 -423 191l-34 3q-43 0 -148 -53l-400 -182q-15 -15 -15 -25zM263 740l826 -438q57 -15 97 -15q89 0 181 58l741 395q192 -78 192 -101q12 -13 12 -29v-13q0 -42 -116 -95q-905 -485 -916 -485
q-49 -15 -95 -15q-95 0 -207 72q-860 457 -890 476q-29 26 -29 53v7q0 47 103 84z" />
    <glyph glyph-name="T" unicode="T" horiz-adv-x="2400" 
d="M2109 1690h14l10 -9q0 -110 -364 -543q-167 -215 -188 -231l-180 193v5q591 564 675 576q0 8 33 9zM1359 1067l193 -198v-5l-136 -170q-139 131 -218 222v10zM1161 883l221 -226v-5q0 -91 -132 -231q-102 -66 -207 -66h-47q-122 0 -302 75v10h37q144 0 184 132
q17 196 57 212q22 53 146 94zM259 185h1628l10 -10v-170l-10 -9h-1628l-9 9v170z" />
    <glyph glyph-name="U" unicode="U" 
d="M469 1698h605q81 0 160 -96l497 -498v-2l-39 2q-216 0 -392 -175q-147 -169 -147 -376t148 -374q45 -46 97 -84q-75 -91 -152 -91h-18q-78 0 -150 90q-735 731 -747 747q-26 48 -26 88v605q0 95 99 149q32 15 65 15zM475 1402q0 -91 100 -124l21 -3h11q75 0 114 82
q7 23 7 39v11q0 72 -76 111q-27 10 -53 10q-78 0 -117 -85q-6 -18 -7 -41zM1633 937h141q30 0 30 -27l15 -89q8 0 66 -37q83 24 104 33q17 0 63 -89l31 -52v-2q0 -21 -40 -45l-51 -39v-73q93 -78 93 -81v-4q0 -8 -81 -142l-15 -3l-105 37q-35 -25 -68 -39q-11 -109 -24 -109
l-7 -3h-160q-15 2 -15 11l2 6l-17 97q-23 9 -65 37q-94 -25 -113 -34q-15 0 -71 107l-22 37q0 31 40 52l50 39v73q-3 6 -83 63q-10 9 -10 17q70 128 87 141l6 2h8l99 -37q34 22 69 39q13 106 22 106q11 8 21 8zM1552 551q0 -95 102 -142q29 -6 50 -6q103 0 147 113l3 37v2
q0 105 -113 147l-30 4h-15q-71 0 -121 -73q-23 -35 -23 -82z" />
    <glyph glyph-name="V" unicode="V" 
d="M836 1690q814 -134 862 -147q37 -21 37 -60q0 -38 -52 -76q-217 -207 -222 -207v-5q248 -38 248 -48q26 -20 26 -54q0 -37 -53 -78l-221 -208v-1h2q250 -39 250 -51q22 -23 22 -53q0 -35 -53 -77q-637 -599 -664 -618l-28 -7q-885 224 -913 237q-27 26 -27 49v14
q0 35 86 90l210 163v2q-261 64 -271 74q-25 24 -25 46v15q0 35 86 90l210 163q-246 64 -269 74q-27 22 -27 53v3q0 43 73 87q659 508 691 528zM2021 1210l319 -426l-3 -2h-211q0 -216 -153 -426q-132 -155 -251 -202q190 282 190 603v25h-212v2q307 414 321 426zM1339 1085
l-314 -294q-13 -11 -35 -11l-483 121l-245 -190l711 -183l553 522v3h-2zM1339 694q-305 -289 -318 -296q-13 -8 -33 -8l-481 122l-243 -189v-2l709 -182l555 523z" />
    <glyph glyph-name="W" unicode="W" horiz-adv-x="2030" 
d="M816 1689q851 -141 865 -149q33 -23 33 -60q0 -35 -63 -85l-213 -201q251 -37 251 -50q25 -23 25 -52q0 -38 -68 -89l-208 -198q251 -38 251 -49q25 -23 25 -56q0 -34 -63 -83q-610 -574 -650 -609l-32 -8q-869 221 -909 236q-30 23 -30 55v8q0 37 87 92l211 163
q-258 64 -270 73q-28 22 -28 53v8q0 37 83 90l213 165q-248 63 -268 73q-28 26 -28 48v9q0 42 66 81q661 510 697 532zM831 1555l-588 -454l708 -183l555 522zM1733 1209q82 -36 202 -148q114 -128 155 -250q47 -131 47 -231h208l5 -5q-317 -417 -317 -422h-4
q-316 416 -319 427h212v9q0 342 -191 618zM1317 1084q-314 -300 -323 -301l-29 -3l-478 121l-244 -188v-1l708 -183l555 520v2z" />
    <glyph glyph-name="X" unicode="X" horiz-adv-x="2400" 
d="M955 1695h895q102 0 168 -102q27 -41 27 -128v-827q0 -97 -34 -140q-67 -90 -160 -90h-901q-101 0 -168 102q-26 48 -26 98v887q0 117 115 181q42 19 84 19zM893 1439v-780q0 -61 63 -101q27 -13 50 -13h789q58 0 98 61q15 27 15 72v749q0 89 -76 123q-25 8 -38 8h-784
q-79 0 -113 -86q-4 -17 -4 -33zM630 1424q34 0 56 -47l4 -27v-913q0 -66 77 -94l39 -3h904q44 0 63 -53l1 -17q0 -46 -55 -65l-29 -2h-944q-112 0 -158 68q-35 46 -35 98v991q0 46 56 64h21zM1693 1318h1q34 0 72 -56l3 -20q0 -28 -52 -73q-375 -376 -379 -376
q-32 -13 -46 -15q-27 0 -68 48q-195 192 -195 199l-3 19v3q0 34 56 71l20 3q27 0 69 -49l129 -128q364 368 368 368q12 6 25 6zM418 1154q47 0 65 -51q4 -7 4 -26v-846q0 -52 57 -84q18 -10 56 -10h839q43 0 61 -52l2 -13v-4q0 -47 -52 -67l-32 -1h-873q-106 0 -148 54
q-47 48 -47 112v921q0 49 54 65z" />
    <glyph glyph-name="Y" unicode="Y" horiz-adv-x="2400" 
d="M958 1705h900q104 0 171 -103q26 -41 26 -128v-833q0 -95 -34 -140q-67 -91 -162 -91h-905q-103 0 -170 104q-25 48 -25 98v892q0 118 115 183q42 18 84 18zM896 1448v-785q0 -62 64 -101q28 -14 50 -14h794q58 0 99 62q14 27 14 72v754q0 89 -76 124q-25 7 -38 7h-788
q-81 0 -115 -87q-4 -16 -4 -32zM632 1432q34 0 57 -46l3 -29v-917q0 -67 77 -96l39 -2h911q43 0 61 -53l2 -17q0 -46 -54 -66l-30 -1h-950q-113 0 -159 68q-34 46 -34 99v997q0 46 55 63h22zM418 1161q48 0 66 -52q4 -6 4 -25v-852q0 -51 58 -84q18 -10 55 -10h844
q43 0 62 -53l2 -13v-4q0 -46 -53 -67l-31 -1h-878q-107 0 -150 55q-47 48 -47 112v926q0 49 55 66z" />
    <glyph glyph-name="Z" unicode="Z" horiz-adv-x="2404" 
d="M1106 1696h185q62 0 84 -72l1 -32v-70h432q82 0 97 -80v-93l-3 -4h-1407l-3 4v90q0 53 64 80l28 3h437v68q0 77 53 100q15 6 32 6zM582 1258h1233l3 -3v-1157q0 -99 -107 -99h-1025q-107 0 -107 99v1157zM758 993v-724q0 -65 59 -88l28 -6q62 0 87 71l1 19v722
q0 68 -64 92l-26 3q-50 0 -78 -52q-7 -17 -7 -37zM1112 999v-742q0 -53 64 -78l23 -4q57 0 84 62l3 20v742q0 56 -69 81l-18 2q-62 0 -84 -64q-3 -6 -3 -19zM1464 989v-724q0 -63 67 -86l20 -4q62 0 85 67q4 8 4 27v718q0 68 -64 92l-25 3q-59 0 -84 -64z" />
    <glyph glyph-name="bracketleft" unicode="[" horiz-adv-x="2402" 
d="M1022 1685h28q296 0 489 -105q78 -52 78 -104v-101q0 -98 -209 -168q-171 -52 -372 -52q-299 0 -491 101q-91 58 -91 118v105q0 76 166 143q181 63 402 63zM460 1159h5q7 -5 29 -39q92 -98 279 -144q131 -31 262 -31q289 0 484 124q54 41 81 83l6 7h5q6 -3 6 -11v-200
l-3 -3h-315v-283q0 -8 -131 -27q-64 -7 -133 -7q-298 0 -493 140q-88 77 -88 151v229q0 8 6 11zM1408 840h206l3 -3v-315h314l3 -3v-206l-3 -3h-314v-314l-3 -3h-206l-3 3v314h-315l-3 3v206l3 3h315v315zM463 631q5 0 33 -44q45 -49 90 -74q55 -31 147 -59q145 -36 237 -36
l14 -3v-302q0 -3 -5 -3q-75 0 -220 44q-80 29 -142 66q-163 110 -163 222v181q4 8 9 8z" />
    <glyph glyph-name="backslash" unicode="\" 
d="M4 1331h151l5 -5v-709h159v475l5 5h151l4 -5v-475h159v475l5 5h153l5 -5v-475h159v475l5 5h151l5 -5v-475h158v475l5 5h150l5 -5v-475h162v475l5 5h151l5 -5v-475h158v475l5 5h150l5 -5v-475h160v709l5 5h150l5 -5v-865l-5 -5h-2391l-5 5v865z" />
    <glyph glyph-name="bracketright" unicode="]" 
d="M1207 1700q51 0 72 -63l2 -17v-84q148 -15 302 -109q195 -133 277 -360q30 -111 30 -140h86q54 0 76 -60l2 -16v-8q0 -50 -57 -73q-8 -3 -23 -3h-84q0 -34 -36 -155q-46 -129 -161 -254q-127 -116 -231 -154q-122 -44 -179 -44l-2 -2v-84q0 -57 -60 -78l-16 -2h-8
q-52 0 -74 61l-2 17v86q-88 11 -167 42q-65 22 -160 85q-181 130 -257 362q-14 42 -25 120h-84q-57 0 -78 60l-2 14v12q0 51 63 72l15 2h86q13 145 109 302q118 178 333 267q127 40 167 40v86q0 61 70 78h16zM675 927h157q51 0 75 -60l2 -22q0 -55 -63 -76l-18 -2h-153
q0 -23 34 -124q41 -95 115 -173q109 -98 200 -125q31 -12 97 -24v157q0 52 60 75l16 2h4q58 0 78 -63l2 -18v-153q163 32 261 118q92 85 114 133q52 83 70 195h-152q-58 0 -79 62l-2 18v4q0 52 61 74l16 2h157q-31 160 -114 257q-89 96 -143 122q-92 53 -189 67v-153
q0 -58 -62 -79l-22 -2q-53 0 -74 63l-2 14v157q-23 0 -124 -34q-82 -30 -178 -121q-97 -108 -123 -205q-7 -14 -21 -86zM1199 927h6q50 0 73 -57q3 -8 3 -23q0 -58 -62 -78l-18 -2q-57 0 -78 60l-2 16v6q0 54 60 76z" />
    <glyph glyph-name="asciicircum" unicode="^" 
d="M1820 1698h7q52 0 147 -93q63 -55 66 -83l4 -29v-15q0 -34 -54 -79q0 -4 -100 -103h-2l-252 252v2q136 139 145 139q21 9 39 9zM1450 1590v-1q0 -3 -155 -167h-744q-43 0 -43 -39v-1167q4 -34 32 -34h1185q32 4 32 32v753l169 156l1 -2v-1061q-3 -46 -37 -46h-1509
q-41 4 -41 36v1505q0 31 41 35h1069zM1586 1499l244 -250l-694 -706h-2q-48 46 -253 261zM835 739h3q84 -78 233 -230v-3l-381 -162v3z" />
    <glyph glyph-name="underscore" unicode="_" 
d="M1177 1665h43q413 0 693 -402q116 -221 116 -423q0 -465 -434 -736q-205 -100 -396 -100q-494 0 -762 486q-69 176 -69 323v43q0 432 423 709q200 100 386 100zM468 866v-58q0 -249 202 -476q67 41 291 69q89 29 89 121q0 58 -63 122q-37 148 -96 275v26q0 32 27 32
l-27 159v32q0 145 238 238l64 5q213 0 275 -159q22 -55 22 -105l-16 -170l21 -26q0 -27 -75 -222q0 -64 -79 -154v-58q0 -94 95 -116l218 -38q54 -31 73 -31q202 227 202 508q0 393 -382 640q-179 85 -317 85h-63q-352 0 -603 -361q-96 -188 -96 -338z" />
    <glyph glyph-name="grave" unicode="`" 
d="M1192 1700h24q302 0 424 -332l12 -103v-194h85q125 0 175 -145v-744q0 -159 -188 -181h-1040q-187 22 -187 181v726q0 110 145 163h115v194q0 302 332 423zM835 1271v-200h738v200q0 197 -206 314q-91 42 -162 42q-227 0 -346 -235q-24 -60 -24 -121zM575 896v-725
q0 -70 103 -92h1053q103 18 103 103v714q0 87 -116 102h-1016q-127 0 -127 -102zM1205 744q114 -19 114 -114q0 -40 -36 -85v-72q0 -103 -73 -103h-11q-73 0 -73 103v72q-37 45 -37 85q21 114 116 114z" />
    <glyph glyph-name="a" unicode="a" horiz-adv-x="2400" 
d="M1179 1688h41q266 0 444 -260q74 -130 74 -265q0 -271 -245 -440l-33 -17v-5q163 -40 355 -215q189 -215 220 -403l8 -37q-20 -45 -53 -45q-58 0 -69 93q-100 301 -322 424q-187 115 -379 115h-37q-366 0 -619 -339q-65 -110 -110 -273q-22 -20 -49 -20q-49 12 -49 49v13
q83 322 290 480q150 119 285 155l4 3v5q-274 166 -274 448v24q0 276 285 453q129 57 233 57zM771 1178v-32q0 -219 229 -358q100 -45 188 -45h28q181 0 322 163q90 118 90 257q0 233 -229 370q-101 49 -203 49q-248 0 -383 -241q-42 -86 -42 -163z" />
    <glyph glyph-name="c" unicode="c" horiz-adv-x="2398" 
d="M350 1488h1681l15 -16q-128 -167 -840 -1256h-16l-840 1256v16z" />
    <glyph glyph-name="d" unicode="d" 
d="M350 231l840 1257h16q712 -1089 840 -1257l-15 -15h-1681v15z" />
    <glyph glyph-name="e" unicode="e" horiz-adv-x="2401" 
d="M1829 1672v-1657l-15 -16q-166 126 -1240 829v15l1240 829h15z" />
    <glyph glyph-name="f" unicode="f" horiz-adv-x="2401" 
d="M579 1689l1255 -839v-15q-1087 -711 -1255 -839l-15 15v1678h15z" />
    <glyph glyph-name="g" unicode="g" horiz-adv-x="2405" 
d="M585 1642l611 -570l609 570l246 -233l-600 -577l600 -577l-246 -233l-609 569l-611 -569l-245 233l600 577l-600 577z" />
    <glyph glyph-name="h" unicode="h" 
d="M1843 1394q164 -139 208 -193q-84 -91 -1025 -944h-8q-577 510 -669 609v8q105 113 201 185h7l469 -416z" />
    <glyph glyph-name="i" unicode="i" horiz-adv-x="2405" 
d="M1141 1694h139q98 0 120 -126v-511h451q113 0 126 -139v-114q-25 -126 -112 -126h-465v-551q-20 -126 -126 -126h-126q-127 20 -127 126v551h-497q-120 25 -120 107v152q0 98 126 120h491v517q23 120 120 120z" />
    <glyph glyph-name="j" unicode="j" horiz-adv-x="2400" 
d="M544 1055h1297q116 0 170 -157v-44q-39 -177 -176 -177h-1266q-129 0 -183 133l-6 38v44q46 163 164 163z" />
    <glyph glyph-name="k" unicode="k" horiz-adv-x="2400" 
d="M1629 1698h317l15 -15v-1664l-15 -15h-317l-15 15v824l-1185 -832v1680h15l1170 -832v824z" />
    <glyph glyph-name="l" unicode="l" horiz-adv-x="2400" 
d="M776 1683v-824l1171 832h15v-1680l-1186 832v-824l-14 -15h-317l-15 15v1664l15 15h317z" />
    <glyph glyph-name="m" unicode="m" horiz-adv-x="2400" 
d="M965 1695l836 -836v-22l-836 -836l-131 131l712 720l-712 712z" />
    <glyph glyph-name="n" unicode="n" horiz-adv-x="3004" 
d="M1103 1556q75 -12 75 -72q-9 -415 -30 -415q-18 -19 -41 -19q-30 0 -125 83l-94 76q-102 -169 -102 -393v-30q0 -288 291 -528q156 -117 426 -117q37 -16 37 -41v-11q0 -47 -82 -53h-53q-208 0 -457 177q-271 236 -271 554v65q0 257 124 433l-150 128l-8 23v15
q0 45 87 53zM1540 1556h46q225 0 486 -197q249 -229 249 -573q0 -289 -128 -464q151 -116 158 -139l4 -23q0 -50 -136 -60q-287 -64 -324 -64h-4q-71 11 -71 72q0 422 37 422q13 11 38 11q21 0 132 -94l83 -64q102 172 102 415q0 286 -276 520q-151 102 -199 102
q-83 30 -246 30q-37 19 -37 45q0 61 86 61z" />
    <glyph glyph-name="o" unicode="o" horiz-adv-x="2398" 
d="M1311 1670h20q90 0 109 -129v-465h446q73 0 110 -90q3 -29 12 -39v-106l-8 -7h-1346l-8 7v110q0 88 90 121l23 4h435v473q16 121 117 121zM676 716h1276q26 -27 63.5 -177.5t34.5 -256.5q0 -192 -114 -258q-50 -15 -82 -15h-43q0 73 -93 305h-4q0 -197 -108 -315h-221
q24 124 -69 422h-4q30 -230 -70 -393q-20 -27 -43 -27h-219v4q19 32 19 94q0 114 -27 273h-4q-185 -371 -323 -371h-309v8h8q107 0 211 223q55 125 98 351q14 133 23 133z" />
    <glyph glyph-name="p" unicode="p" 
d="M356 1695h1681l9 -9v-1681l-9 -9h-1681l-9 9v1681zM408 1625v-1559l9 -9h1559l9 9v1559l-9 9h-1559zM1208 1082q63 0 122.5 -32t93 -92t33.5 -125t-32.5 -124t-92 -92t-124.5 -33t-124.5 33t-92 92t-32.5 124t34 125t93 92t122 32z" />
    <glyph glyph-name="q" unicode="q" 
d="M364 1698h1667l14 -14v-1667l-14 -14h-1667l-14 14v1667zM409 1625v-1556h1570v1570h-1556zM665 1493l712 -192v-14l-264 -323l830 118v-7q-749 -948 -779 -970h-7l-44 30v22l653 822h-8l-820 -117l-8 6v8l315 374v8q-602 152 -602 169v7z" />
    <glyph glyph-name="r" unicode="r" horiz-adv-x="2400" 
d="M349 1703h1688l13 -13v-1688l-13 -13h-1688l-13 13v1688zM403 1636v-1580h1580v1580h-1580zM1013 1457q233 -301 253 -305l418 -187l120 -723q-67 22 -671 359h-6l-545 -300l-7 6l60 845q360 305 378 305z" />
    <glyph glyph-name="s" unicode="s" 
d="M443 1690q86 0 141 -106h1221q55 106 141 106h21q85 0 128 -115l4 -34v-17q0 -97 -98 -140v-1078q98 -42 98 -136v-21q-23 -149 -149 -149q-88 0 -145 106h-1221q-57 -102 -124 -102l-30 -4q-97 0 -140 128v42q0 94 98 136v1078q-98 43 -98 140v17q0 107 119 149h34z
M486 1384v-1069q93 -63 93 -106h1231q0 43 93 106v1069q-40 0 -98 97h-1221q-43 -78 -85 -93z" />
    <glyph glyph-name="t" unicode="t" horiz-adv-x="2405" 
d="M1094 1690h62q585 0 939 -442q75 -122 111 -228q135 -56 135 -184q0 -124 -148 -190q-101 -300 -399 -473q-299 -172 -620 -172h-68q-474 0 -822 313q-240 244 -240 504v55q0 402 510 694q288 123 540 123zM148 848v-6q0 -354 486 -620q271 -117 497 -117q442 0 786 326
q123 146 147 227q-116 65 -116 160v24q0 120 116 172v6q-92 248 -380 418q-278 135 -510 135h-80q-437 0 -786 -350q-160 -184 -160 -375z" />
    <glyph glyph-name="u" unicode="u" 
d="M1106 1695h66q420 0 703 -413q59 -104 103 -246q124 -49 124 -149l5 -39q0 -100 -129 -174q-93 -340 -291 -478q-228 -200 -561 -200q-485 0 -762 484q-78 186 -78 336v46q0 490 491 755q172 78 329 78zM415 848q0 -457 427 -664q148 -52 264 -52h66q413 0 620 394
q51 118 51 161q-117 54 -117 149v46q0 96 110 147q-5 136 -187 343q-220 194 -511 194q-447 0 -652 -401q-71 -160 -71 -317z" />
    <glyph glyph-name="v" unicode="v" 
d="M520 1695h14q117 0 166 -133l3 -29v-26q0 -98 -122 -162v-995q119 -65 119 -141l3 4h985q6 0 22 50q62 90 158 90q131 0 173 -140l4 -33v-7q0 -125 -141 -169l-36 -4h-3q-122 0 -173 137l-4 4h-988q0 -67 -105 -130l-65 -11h-7q-124 0 -169 137l-4 33v18q0 112 137 162
h14v995q-78 0 -137 101q-14 34 -14 61v19q0 117 133 165zM1454 1601h3q47 0 47 -68v-401h368q64 0 72 -43v-40q-22 -36 -87 -36h-353v-396q0 -52 -29 -69h-39q-29 17 -29 69v396h-354q-86 0 -86 47v29q0 34 65 43h375v397q0 72 47 72z" />
    <glyph glyph-name="w" unicode="w" 
d="M523 1703q121 0 172 -136v-47q0 -148 -178 -172q-120 0 -171 124l-6 36v24q0 123 142 171h41zM1630 1703q41 0 242 -219q171 -153 171 -194v-13q0 -57 -160 -195q-528 -538 -544 -538l-29 -6h-308q-124 0 -124 95v313q0 80 89 143q602 614 627 614h36zM973 999l160 -159
l644 644q-143 154 -160 154q-16 0 -644 -639zM1824 1437l-644 -650l159 -154q639 628 639 644v13zM506 1242h59l11 -12v-213l-11 -12h-59l-12 12v213zM943 929v-285q4 -35 18 -35h302zM506 929h59l11 -13v-207l-11 -11h-59l-12 11v207zM506 621h59l11 -12v-213l-11 -11h-59
l-12 11v213zM517 355q127 0 178 -136v-65q0 -113 -160 -154h-35q-160 39 -160 160v35q0 110 147 160h30zM1866 355q177 -23 177 -178q-23 -177 -177 -177h-18q-131 0 -166 177q0 135 160 178h24zM736 236h213l12 -11v-59l-12 -12h-213l-11 12v59zM1049 236h207l13 -11v-59
l-13 -12h-207l-11 12v59zM1357 236h213l12 -11v-59l-12 -12h-213l-12 12v59z" />
    <glyph glyph-name="x" unicode="x" horiz-adv-x="2398" 
d="M492 1668h16q139 0 176 -160v-36q0 -114 -140 -164l-40 -4h-4q-129 0 -176 140l-4 32v16q0 122 136 172zM1720 1656q56 0 84 -88v-100h192q40 -8 40 -40v-24q-17 -32 -44 -32h-100q-40 -796 -52 -796q-30 -52 -116 -52h-504q-128 0 -128 128l-40 720h-100q-27 0 -44 32
v24q8 40 40 40h192v76q0 90 80 112h500zM1236 1560v-92h472v92h-472zM1148 1372l44 -748h532l28 -4l44 752h-648zM1280 1280h8q44 -7 44 -44v-476q-8 -44 -40 -44h-16q-40 8 -40 40v480q7 44 44 44zM1468 1280h8q44 -7 44 -44v-476q-8 -44 -40 -44h-16q-36 0 -40 48v472
q7 44 44 44zM1656 1280h8q44 -7 44 -44v-480q-8 -40 -40 -40h-16q-32 0 -40 44v476q7 44 44 44zM484 1272h68l8 -8v-224l-8 -8h-68l-8 8v224zM484 952h68l8 -8v-224l-8 -8h-68l-8 8v224zM484 636h68l8 -8v-224l-8 -8h-68l-8 8v224zM508 364q120 0 172 -136l4 -32v-28
q0 -123 -152 -168h-44q-111 0 -164 136l-4 40v16q0 121 144 168zM1892 364q123 0 172 -140l4 -32v-16q0 -122 -136 -172l-32 -4h-28q-121 0 -168 148v48q0 113 140 164zM724 240h224l8 -8v-68l-8 -8h-224l-8 8v68zM1044 240h224l8 -8v-68l-8 -8h-224l-8 8v68zM1360 240h224
l8 -8v-68l-8 -8h-224l-8 8v68z" />
    <glyph glyph-name="y" unicode="y" horiz-adv-x="2400" 
d="M359 1685h225l9 -9v-225l-9 -9h-225l-9 9v225zM719 1685h224l9 -9v-225l-9 -9h-224l-9 9v225zM1079 1685h224l9 -9v-225l-9 -9h-224l-10 9v225zM1443 1685h584l9 -9v-1668l-9 -9h-584l-9 9v1668zM359 1325h225l9 -9v-224l-9 -9h-225l-9 9v224zM719 1325h224l9 -9v-224
l-9 -9h-224l-9 9v224zM1079 1325h224l9 -9v-224l-9 -9h-224l-10 9v224zM359 966h225l9 -10v-224l-9 -9h-225l-9 9v224zM719 966h224l9 -10v-224l-9 -9h-224l-9 9v224zM1079 966h224l9 -10v-224l-9 -9h-224l-10 9v224zM359 601h225l9 -9v-224l-9 -9h-225l-9 9v224zM719 601
h224l9 -9v-224l-9 -9h-224l-9 9v224zM1079 601h224l9 -9v-224l-9 -9h-224l-10 9v224zM359 242h225l9 -9v-225l-9 -9h-225l-9 9v225zM719 242h224l9 -9v-225l-9 -9h-224l-9 9v225zM1079 242h224l9 -9v-225l-9 -9h-224l-10 9v225z" />
    <glyph glyph-name="z" unicode="z" horiz-adv-x="2399" 
d="M362 1695h225l10 -9v-225l-10 -10h-225l-9 10v225zM723 1695h225l9 -9v-225l-9 -10h-225l-9 10v225zM1084 1695h225l9 -9v-225l-9 -10h-225l-10 10v225zM1449 1695h225l9 -9v-225l-9 -10h-225l-9 10v225zM1810 1695h225l9 -9v-225l-9 -10h-225l-10 10v225zM362 1334h225
l10 -9v-225l-10 -9h-225l-9 9v225zM723 1334h225l9 -9v-225l-9 -9h-225l-9 9v225zM1084 1334h225l9 -9v-225l-9 -9h-225l-10 9v225zM1449 1334h225l9 -9v-225l-9 -9h-225l-9 9v225zM1810 1334h225l9 -9v-225l-9 -9h-225l-10 9v225zM362 974h225l10 -10v-225l-10 -9h-225
l-9 9v225zM723 974h225l9 -10v-225l-9 -9h-225l-9 9v225zM1084 974h225l9 -10v-225l-9 -9h-225l-10 9v225zM1449 974h225l9 -10v-225l-9 -9h-225l-9 9v225zM1810 974h225l9 -10v-225l-9 -9h-225l-10 9v225zM362 608h225l10 -9v-225l-10 -9h-225l-9 9v225zM723 608h225l9 -9
v-225l-9 -9h-225l-9 9v225zM1084 608h225l9 -9v-225l-9 -9h-225l-10 9v225zM1449 608h225l9 -9v-225l-9 -9h-225l-9 9v225zM1810 608h225l9 -9v-225l-9 -9h-225l-10 9v225zM362 248h225l10 -10v-225l-10 -9h-225l-9 9v225zM723 248h225l9 -10v-225l-9 -9h-225l-9 9v225z
M1084 248h225l9 -10v-225l-9 -9h-225l-10 9v225zM1449 248h225l9 -10v-225l-9 -9h-225l-9 9v225zM1810 248h225l9 -10v-225l-9 -9h-225l-10 9v225z" />
    <glyph glyph-name="braceleft" unicode="{" 
d="M405 1700h1590q55 0 55 -55v-1590q0 -55 -55 -55h-781l-13 13v90l13 13h720v1468h-1468v-720l-13 -13h-90l-13 13v781q0 55 55 55zM1323 1474h487l14 -14v-487l-14 -14h-89l-13 14v296l-522 -515h-6l-76 76v6l515 522h-296l-14 13v89zM363 678h652l13 -13v-652l-13 -13
h-652l-13 13v652zM466 562v-446h446v446h-446z" />
    <glyph glyph-name="bar" unicode="|" horiz-adv-x="2405" 
d="M1162 1665h72q555 -16 671 -265v-1093q0 -211 -522 -300l-178 -7h-29q-516 0 -679 257l-7 43v1072q0 196 501 286zM569 1372q0 -145 479 -215l150 -7q558 29 628 208v14q0 148 -458 221l-106 8h-121q-385 0 -558 -186zM562 1243v-236q0 -134 493 -192l143 -7
q495 0 635 185v250h-7q-208 -171 -592 -171h-93q-349 0 -579 171zM1248 715h-100q-361 0 -579 163h-7l-8 -35v-178q0 -159 537 -207l107 -8q490 0 635 186l7 43l-7 207q-219 -171 -585 -171zM1241 358h-72q-393 0 -607 171h-8v-222q0 -156 529 -221h151q606 38 606 236v214
q-217 -178 -599 -178z" />
    <glyph glyph-name="braceright" unicode="}" 
d="M1187 1675h24q290 0 434 -297q24 -82 24 -147q0 -331 -482 -750q-225 206 -330 377q-128 210 -128 354q0 310 326 444q68 19 132 19zM810 1217v-14q0 -217 358 -600l19 -14q401 366 401 637v19q0 205 -240 326q-62 19 -147 28q-223 0 -349 -212q-42 -84 -42 -170z
M1201 1420q194 -33 194 -189q0 -140 -161 -189h-47q-133 0 -179 156l-5 33q0 128 151 184zM1083 1226q23 -103 104 -103h24q104 20 104 103v5q0 89 -114 109q-118 -17 -118 -114zM2013 1165q24 -44 24 -71v-920q0 -16 -208 -66q-355 -109 -377 -109t-534 151
q-394 -104 -491 -118h-57l-9 9v940q9 14 208 142h4q15 -6 48 -52v-5l-184 -132v-812l486 113l533 -142l505 133v835h-4l-175 -61q-24 52 -24 75v5z" />
    <glyph glyph-name="exclamdown" unicode="&#xa1;" horiz-adv-x="2400" 
d="M211 1662h106l11 -11v-1530h1848l11 -10v-101l-11 -11h-1965l-11 11v1641zM1751 1598h181l11 -10v-1323l-11 -11h-181l-10 11v1323zM1374 1343h181l10 -10v-1068l-10 -11h-181l-10 11v1068zM1002 1024h181l11 -10v-749l-11 -11h-181l-10 11v749zM630 897h181l11 -11v-621
l-11 -11h-181l-10 11v621z" />
    <glyph glyph-name="cent" unicode="&#xa2;" 
d="M1927 1670l5 -4l-97 -424h-8l-96 97l-510 -534l-169 175l-471 -486h-4l-108 111v3l583 606q165 -163 165 -173h4l398 416l-100 105v8zM1665 994h193l8 -7v-981l-8 -7h-193l-7 7v981zM1314 798h197l8 -8v-784l-8 -7h-197l-7 7v784zM951 598h198l7 -9v-583l-7 -7h-198l-7 7
v583zM604 397h196l9 -9v-382l-9 -7h-196l-8 7v382z" />
    <glyph glyph-name="sterling" unicode="&#xa3;" horiz-adv-x="2400" 
d="M1178 1670h51q416 0 699 -427q103 -212 103 -409q0 -431 -404 -710q-219 -120 -426 -120q-490 0 -757 471q-79 180 -79 331v51q0 442 432 717q198 96 381 96zM473 868v-69q0 -298 296 -550q215 -137 426 -137q421 0 654 410q74 164 74 318q0 410 -392 643
q-165 79 -295 79h-69q-369 0 -615 -381q-79 -175 -79 -313zM1195 1334q31 0 51 -34v-91q-20 -34 -51 -34q-52 8 -52 51v57q8 51 52 51zM1195 1022h17q34 -14 34 -46v-585q0 -46 -45 -46h-6q-52 8 -52 51v575q8 51 52 51z" />
    <glyph glyph-name="currency" unicode="&#xa4;" horiz-adv-x="2400" 
d="M312 1675h50l6 -7v-1660l-6 -7h-50l-7 7v1660zM492 1675h1430l7 -7v-46l-7 -7h-1430l-7 7v46zM492 1445h1430l7 -7v-46l-7 -7h-1430l-7 7v46zM492 1215h1430l7 -7v-47l-7 -6h-1430l-7 6v47zM492 984h1430l7 -6v-47l-7 -7h-1430l-7 7v47zM492 754h1430l7 -5v-48l-7 -7
h-1430l-7 7v48zM492 524h1430l7 -5v-51l-7 -7h-1430l-7 7v51zM492 291h1430l7 -7v-43l-7 -7h-1430l-7 7v43zM492 64h1430l7 -6v-50l-7 -7h-1430l-7 7v50z" />
    <glyph glyph-name="logicalnot" unicode="&#xac;" 
d="M1149 1667h35q389 0 633 -369q105 -178 105 -370v-50q0 -122 -60 -269l-5 -5h-234v-65l-10 -10h-65v-65l-10 -10h-70v65l10 10h65v75h-150v-65l-10 -10h-65v-65l-10 -10h-64v-65l-10 -10h-65v-70l-10 -10h-65v-69h140l10 10v54l9 10h65v65l10 10h65v65l10 10h65v-65
l-10 -10h-55l-10 -10v-60l-10 -10h-65v-54q170 42 285 144h10l379 -384v-5h-145l-274 270q-189 -120 -409 -120q-428 0 -674 414q-80 167 -80 329v35q0 388 369 634q179 105 370 105zM485 908q9 -138 40 -224h1282q30 88 40 224q0 353 -324 584q-176 100 -359 100
q-405 0 -619 -404q-60 -156 -60 -280zM1174 1442q153 0 219 -179l5 -50q0 -73 -85 -205l-139 -244h-10l-215 374l-10 75q0 158 175 224zM1019 1223v-20q31 -140 140 -140h20q114 0 139 150v5q-27 145 -139 145h-20q-140 -32 -140 -140zM560 604q38 -95 154 -200q0 50 10 50
h55l10 10v55l10 10h65v-65l-10 -10h-65v-65q0 -10 -45 -10q42 -41 120 -80v70l10 10h65v65l10 10h65v65l10 10h65v75h-150v-65l-10 -10h-65v75h-304zM1169 604v-65l-10 -10h-65v-65l-10 -10h-65v-65l-10 -10h-60l-10 -10v-60l-10 -10h-60v-5l145 -49v49l10 10h65v65l10 10
h65v65l10 10h60l10 10v55l9 10h55l10 10v65h-149z" />
    <glyph glyph-name="registered" unicode="&#xae;" 
d="M1176 1667h35q398 0 668 -358q150 -225 150 -472q0 -454 -433 -732q-209 -104 -403 -104q-451 0 -732 433q-98 199 -98 385v35q0 424 404 698q198 115 409 115zM467 837q0 -414 403 -651q164 -75 335 -75q395 0 639 397q75 172 75 335q0 420 -426 656q-169 64 -300 64
q-425 0 -662 -427q-64 -173 -64 -299zM801 917h767q56 0 69 -86q0 -64 -92 -80h-709q-105 0 -105 74v24q15 68 70 68z" />
    <glyph glyph-name="macron" unicode="&#xaf;" horiz-adv-x="2400" 
d="M1175 1667h36q399 0 670 -359q150 -226 150 -473q0 -456 -433 -734q-211 -105 -406 -105q-453 0 -734 433q-98 200 -98 387v36q0 425 404 700q199 115 411 115zM465 835q0 -415 404 -654q164 -75 335 -75q396 0 642 399q75 171 75 335q0 423 -428 660q-169 62 -301 62
q-425 0 -665 -428q-62 -172 -62 -299zM1551 1170q30 0 98 -93v-22l-578 -579h-23l-312 312v23q78 93 109 93l215 -208q461 474 486 474h5z" />
    <glyph glyph-name="degree" unicode="&#xb0;" horiz-adv-x="2400" 
d="M1679 1667l61 -61v-6l-386 -392l135 -141v-6l-583 -583h-6l-141 135l-392 -380h-6l-61 61l392 392l-141 141v7l583 582h6l141 -135h6zM1525 711q154 -184 154 -196h12l240 196h5l147 -147l-263 -227l147 -184l-147 -147h-6l-165 196l-240 -202l-153 153q252 215 263 215
l-141 184v12z" />
    <glyph glyph-name="plusminus" unicode="&#xb1;" horiz-adv-x="2400" 
d="M371 1670h535l13 -11v-542h552v542l13 11h535l11 -11v-535l-11 -13h-542v-552h542l11 -13v-535l-11 -11h-535l-13 11v542h-552v-542l-13 -11h-535l-11 11v535l11 13h542v552h-542l-11 13v535z" />
    <glyph glyph-name="uni00B2" unicode="&#xb2;" horiz-adv-x="2398" 
d="M1586 1666h30q115 0 280 -201q128 -111 128 -188v-42q0 -64 -74 -123l-486 493q0 32 122 61zM1386 1490l480 -487v-6q-49 -64 -827 -833l-486 493zM807 644q0 -77 189 -219l49 -6q74 0 225 176q341 329 341 365l5 37v6q0 80 -175 219l-55 13h-7q-73 0 -200 -153
q-365 -346 -365 -389zM437 572h6q278 -270 481 -487v-5l-474 -80q-80 20 -80 80q0 55 67 492z" />
    <glyph glyph-name="uni00B3" unicode="&#xb3;" 
d="M1393 1672q60 -9 60 -60q-14 -59 -67 -59h-866q-81 -7 -81 -74v-1272q0 -88 94 -88h1305q107 0 107 74v793q0 50 67 59q25 0 53 -40v-839q0 -143 -206 -166h-1332q-207 23 -207 166v1326q0 139 154 180h919zM1826 1639q109 0 239 -187q13 -26 13 -73q0 -66 -193 -234
q-702 -705 -732 -705l-334 -87q-29 11 -46 41q78 392 133 392q844 846 873 846zM1733 1425l133 -126l93 93q0 43 -114 126h-19zM1026 732l133 -126q13 0 613 600l-133 133zM952 639q-33 -100 -33 -146l147 40z" />
    <glyph glyph-name="acute" unicode="&#xb4;" horiz-adv-x="2398" 
d="M1575 1665q131 0 195 -175l8 -50v-334l-37 -37h-21q-58 0 -58 58v299q-20 116 -102 116h-1062q-93 0 -102 -139v-1047q17 -117 109 -117h502q57 0 80 -43v-44l-36 -36h-567q-134 0 -197 175l-7 50v1114q0 144 189 210h1106zM665 1309h727q44 -26 44 -66q0 -47 -65 -58
h-684q-66 10 -66 66q0 29 44 58zM687 952h342q58 0 58 -58v-7q0 -58 -58 -58h-364q-44 25 -44 65q0 47 66 58zM1604 952q283 0 391 -305l15 -102v-7q0 -149 -80 -255q92 -80 190 -196v-51l-37 -36h-44l-196 189h-7q-99 -73 -211 -73h-50q-216 0 -343 254q-29 61 -29 125v64
q0 275 320 387zM1320 538q0 -205 196 -284l59 -15h43q231 0 277 299q-51 291 -291 291q-197 0 -277 -226zM687 596h211q72 0 72 -58v-29l-35 -37h-256q-58 0 -58 66q0 47 66 58z" />
    <glyph glyph-name="mu" unicode="&#xb5;" horiz-adv-x="2405" 
d="M436 1357h1529q94 -14 94 -93v-10q-13 -94 -94 -94h-1529q-94 14 -94 94v10q13 93 94 93zM436 935h1518q105 -15 105 -94v-10q-13 -93 -94 -93h-1529q-94 14 -94 93v10q13 94 94 94zM447 518h1507q105 -15 105 -94v-10q0 -91 -136 -103h-1424q-123 0 -157 72v41
q0 79 105 94z" />
    <glyph glyph-name="paragraph" unicode="&#xb6;" 
d="M344 1404h1104l5 -3v-737h236v273l4 5h84l5 -5v-273h265l4 -5v-84l-4 -4h-265v-275l-5 -3h-84l-4 3v275h-236v-275l-5 -3h-1104l-4 3v1105zM428 1230v-169h75v82l5 3h71l4 -3v-507h77v507l5 3h71l4 -3v-82h73l5 3v166h-390zM975 1230v-84h389v84h-389zM975 975v-84h389
v84h-389zM975 720v-84h389v84h-389zM428 464v-84h936v84h-936z" />
    <glyph glyph-name="periodcentered" unicode="&#xb7;" 
d="M882 1399h10q20 0 170 -93q288 -163 339 -196q14 -21 14 -43v-14q0 -47 -71 -70q-433 -218 -449 -218l-13 -3q-27 0 -193 89l-321 157q-20 22 -20 42v18q0 44 88 84q386 228 426 245zM1694 938h83l5 -4v-273h263l4 -3v-86l-4 -5h-263v-272l-5 -4h-83l-5 4v272h-264l-3 5
v36h-3q0 -76 -63 -92q-447 -225 -464 -225h-13q-27 0 -149 66l-365 181q-21 35 -21 83v2l4 4q21 -16 420 -215l116 -59q468 236 538 277v28l3 3h264v273zM344 864h2q42 -25 536 -276l537 276l3 -3v-2q0 -89 -63 -105q-445 -223 -456 -223l-24 -5q-24 0 -184 85
q-189 90 -330 164q-21 32 -21 79v10z" />
    <glyph glyph-name="cedilla" unicode="&#xb8;" 
d="M355 1378h1042l5 -5v-1048l-5 -5h-1042l-5 5v1048zM682 883h-215q-34 -3 -34 -34h-3q0 -32 40 -37h212q7 0 20 -52q40 -76 117 -104l43 -7h25q93 0 155 101q10 18 24 62h218q35 0 35 40q-6 31 -30 31h-221q-4 0 -16 47q-59 123 -181 123q-108 0 -171 -120
q-13 -50 -18 -50zM876 993q96 0 133 -113l3 -33q0 -93 -97 -133q-10 -5 -28 -5h-21q-85 0 -122 108l-2 27v13q0 94 105 133zM1711 938h78l5 -5v-259h249l5 -5v-78l-5 -5h-249v-261l-5 -5h-78l-5 5v261h-249l-5 5v78l5 5h249v259z" />
    <glyph glyph-name="uni00B9" unicode="&#xb9;" 
d="M1250 1665h8q25 -94 37 -94l81 -24v-4q0 -7 -93 -32l-25 -90h-8q-16 102 -57 102l-56 16v4q0 7 89 32zM607 1661h4q20 -98 46 -98l72 -20v-8q-102 -19 -102 -54q-16 -60 -24 -60h-4q-13 98 -48 98q-62 16 -62 24v4q94 16 94 48q16 66 24 66zM1698 1637h94l216 -216v-70
l-1381 -1347h-4l-256 260v70zM929 1607q60 -194 69 -194q185 -54 187 -62q-196 -57 -199 -64l-57 -180h-8q-41 150 -58 188l-182 64v4l182 58q59 186 66 186zM1742 1473l-280 -280l98 -94l284 280zM1902 1026h8q20 -98 44 -98l74 -20v-8q-102 -25 -102 -49q-15 -69 -24 -69
q-24 97 -42 97l-72 21v4l90 36z" />
    <glyph glyph-name="ordmasculine" unicode="&#xba;" 
d="M1520 1539h8l9 -8q0 -73 -247 -389q-83 -120 -101 -138l-120 133q386 391 420 391q12 11 31 11zM1667 1134h87l7 -6v-291h283l5 -6v-91l-5 -5h-283v-291l-7 -6h-87l-6 6v291h-282l-7 5v91l7 6h282v291zM892 1081q22 -6 262 -162l15 -118q-95 -148 -335 -148
q-79 0 -203 22v6h11q86 0 119 77q8 30 14 124q36 132 117 199zM351 532h905l6 -7v-79l-6 -4h-905l-6 4v79z" />
    <glyph glyph-name="guillemotright" unicode="&#xbb;" horiz-adv-x="2398" 
d="M442 1660h59l7 -6v-1443h1583l7 -6v-59l-7 -7h-1583v-131l-7 -6h-59l-6 6v125l-7 6h-125l-6 7v59l6 6h132v1443zM580 1522h679l6 -6v-266l-6 -7h-679l-7 7v266zM580 1109h1232l7 -6v-266l-7 -7h-1232l-7 7v266zM580 693h957l6 -6v-266l-6 -6h-957l-7 6v266z" />
    <glyph glyph-name="onequarter" unicode="&#xbc;" horiz-adv-x="2398" 
d="M357 1552h837l5 -5v-90l-5 -6h-837l-5 6v90zM1252 1552h788l5 -5v-1438l-5 -5h-788l-5 5v1438zM357 1217h837l5 -5v-94l-5 -5h-837l-5 5v94zM357 878h837l5 -5v-90l-5 -5h-837l-5 5v90zM357 543h837l5 -5v-94l-5 -5h-837l-5 5v94zM357 205h837l5 -6v-90l-5 -5h-837l-5 5
v90z" />
    <glyph glyph-name="onehalf" unicode="&#xbd;" 
d="M347 1658h274l5 -4v-243l-5 -5h-274l-4 5v243zM786 1658h1207q43 0 54 -58v-132q-8 -62 -55 -62h-1198q-62 9 -62 55v137q10 60 54 60zM347 942h274l5 -4v-247l-5 -4h-274l-4 4v247zM809 942h1162q76 0 76 -65v-128q0 -56 -67 -62h-1185q-48 0 -63 52v140q0 63 77 63z
M347 264h274l5 -6v-245l-5 -4h-274l-4 4v245zM1980 264q58 0 67 -57v-133q0 -65 -80 -65h-1158q-77 0 -77 63v135q0 46 62 57h1186z" />
    <glyph glyph-name="threequarters" unicode="&#xbe;" 
d="M859 1585h589l5 -5v-495l-5 -6h-251v-336h591l6 -4v-413l-6 -5h-73l-7 5v333h-593l-5 5v162h-426v-500l-5 -5h-75l-6 5v580l6 5h506v168h-251l-4 6v495zM348 576h161l4 -5v-74l-4 -7h-75l-6 -4v-327l6 -7h421v338h-81l-5 7v74l5 5h162l6 -5v-498l-6 -5h-588l-5 5v498z
M1456 576h162l6 -5v-74l-6 -7h-79v-338h421l4 7v327l-4 4h-75l-6 7v74l6 5h159l5 -5v-498l-5 -5h-588l-6 5v498z" />
    <glyph glyph-name="questiondown" unicode="&#xbf;" horiz-adv-x="2400" 
d="M660 1612h1075q182 0 290 -192q29 -70 29 -145v-2q0 -201 -192 -306q-62 -30 -141 -30h-1047q-217 0 -313 220q-20 58 -20 106v24q0 179 178 290q72 35 141 35zM1488 1273q0 -150 157 -226l80 -13q144 0 219 157q14 48 14 88q0 152 -162 226q-48 11 -77 11
q-135 0 -212 -147q-19 -56 -19 -96zM683 731h1022q245 0 334 -232q15 -47 15 -105v-11q0 -179 -172 -288q-75 -40 -139 -40h-1090q-161 0 -273 173q-39 80 -39 152v17q0 201 198 306q64 28 144 28zM437 397v-4q0 -146 137 -220q45 -21 100 -21q151 0 222 162q7 22 12 79
q0 143 -146 222q-47 17 -76 17h-20q-133 0 -207 -139q-22 -49 -22 -96z" />
    <glyph glyph-name="Agrave" unicode="&#xc0;" horiz-adv-x="2400" 
d="M1003 1672h397q46 0 55 -75v-178h509q42 0 58 -52v-23q0 -47 -75 -55h-1492q-69 0 -81 52v20q14 58 55 58h516v201q0 40 58 52zM1072 1546v-127h252v127h-252zM562 1146h3q62 -13 62 -51v-812q0 -109 75 -139q26 -14 62 -14h862q111 0 139 101l4 36v824q0 43 62 55h3
q62 -11 62 -58v-846q0 -137 -156 -222q-44 -16 -87 -16h-910q-158 0 -233 178q-10 35 -10 69v840q0 43 62 55zM881 1146h3q61 -12 61 -55v-711q0 -52 -64 -62q-62 11 -62 59v718q0 38 62 51zM1201 1146q54 0 62 -68v-695q-11 -65 -65 -65q-58 0 -65 76v677q0 75 68 75z
M1512 1146h4q55 0 65 -68v-678q-6 -78 -52 -78l-13 -4q-65 11 -65 62v705q12 61 61 61z" />
    <glyph glyph-name="Aacute" unicode="&#xc1;" 
d="M1154 1359h96q401 0 733 -395q70 -113 70 -134q-315 -510 -848 -510h-19q-491 0 -803 459q-32 46 -32 70q184 336 535 459q145 51 268 51zM886 1015v-19q28 -141 141 -141h32q116 0 140 153q0 105 -121 147h-58q-106 0 -134 -140zM536 836q260 -357 676 -357
q359 0 618 313l32 51q-89 143 -249 242h-6q19 -51 19 -108v-58q0 -209 -255 -350q-88 -32 -172 -32h-13q-271 0 -395 299q-19 70 -19 121l19 128q-165 -97 -255 -249z" />
    <glyph glyph-name="Atilde" unicode="&#xc3;" horiz-adv-x="1669" 
d="M32 1667h12q25 0 33 -33v-1553h238v906q0 42 66 42h114q67 0 67 -39v-909h105v1213q9 54 52 54h143q55 0 55 -75v-1192h102v635q0 28 43 33h168q38 -8 38 -33v-635h359q31 0 39 -42q0 -33 -45 -39h-1571q-51 0 -51 36v1598q0 25 33 33z" />
    <glyph glyph-name="Adieresis" unicode="&#xc4;" horiz-adv-x="2400" 
d="M1845 1670q65 0 91 -94l4 -27v-463h-4q-17 15 -112 132v99h-1351v-1177h514q73 -76 123 -136v-4h-647q-86 0 -103 109v1452q0 77 84 109h1401zM616 1074h459l6 -6v-109l-6 -8h-459l-6 8v109zM1487 939h166q10 0 28 -134l47 -18l115 78l123 -125l-78 -113q17 -50 31 -50
q121 -15 121 -24v-166q0 -12 -119 -25l-15 -3l-18 -47l78 -113l-125 -125l-113 78q-50 -17 -50 -31q-15 -121 -25 -121h-166q-9 0 -28 134l-50 18q-101 -78 -112 -78l-122 125l78 113q-15 47 -28 47q-118 19 -124 25v169q0 9 134 28l18 46l-78 113l125 125l113 -78
q50 18 50 31q15 121 24 121zM616 836h309l6 -6v-109l-6 -6h-309l-6 6v109zM1422 474v-9q0 -98 111 -131l26 -3h3q106 0 137 121v22q0 92 -106 132l-28 2h-9q-92 0 -132 -105zM616 600h309l6 -7v-109l-6 -6h-309l-6 6v109z" />
    <glyph glyph-name="Aring" unicode="&#xc5;" horiz-adv-x="2400" 
d="M1191 1213h16q197 0 319 -195q27 -59 38 -113h428q43 0 58 -60v-9q0 -53 -68 -63h-420q-33 -139 -117 -207q-111 -93 -228 -93h-36q-143 0 -263 130q-56 62 -81 170h-427q-62 14 -62 59v16q14 57 59 57h430q7 86 90 188q117 120 264 120zM942 841q0 -150 152 -234
q54 -21 109 -21q143 0 226 142q27 56 27 117q0 136 -129 221q-61 34 -129 34q-126 0 -211 -112q-45 -69 -45 -147z" />
    <glyph glyph-name="AE" unicode="&#xc6;" horiz-adv-x="2400" 
d="M1120 1665h37q45 0 59 -68v-710q489 -272 642 -364q16 -22 16 -37v-24q-74 -166 -289 -308q-206 -125 -449 -125q-397 0 -669 341q-157 223 -157 458v39q0 363 325 630q232 168 485 168zM1373 1657h8q234 0 466 -208q203 -211 203 -497v-4q0 -166 -76 -310h-4l-597 342
v677zM454 847q0 -361 334 -577q166 -97 337 -97h40q306 0 532 273v8q-567 314 -613 349l-12 41v677q-136 -10 -297 -100q-321 -220 -321 -574z" />
    <glyph glyph-name="Ccedilla" unicode="&#xc7;" horiz-adv-x="2400" 
d="M385 1667h29q24 -12 24 -39v-1545h1545q44 -6 44 -44q0 -32 -44 -39h-1584q-39 0 -39 39v1603zM1806 1515h30q113 -26 113 -113v-34q0 -74 -103 -118l-138 -416q20 -34 25 -74q0 -97 -103 -132h-44q-96 0 -113 132l-118 270h-5l-34 -393q29 -44 29 -73v-15
q-18 -132 -122 -132q-121 0 -137 142l5 5l-201 225l-74 -191q29 -46 29 -78v-5q0 -115 -127 -137h-5q-127 22 -127 137q0 88 107 132l79 201q-44 41 -44 93q24 133 117 133h25q118 -27 118 -118v-20l-5 -49l191 -210h10l34 426l5 5q-44 31 -44 98q21 133 127 133
q138 0 138 -128l142 -309l132 407q-24 21 -24 59v34q25 113 112 113z" />
    <glyph glyph-name="Egrave" unicode="&#xc8;" horiz-adv-x="2400" 
d="M971 1639h950q96 0 135 -119v-970q0 -94 -115 -135h-806v-308q0 -54 -66 -80q-14 -7 -43 -7h-568q-88 0 -108 78v624q19 85 84 85h400v670q0 103 77 144q29 18 60 18zM921 605q0 -104 122 -104h821q91 0 108 98v840q0 115 -125 115h-811q-96 0 -115 -87v-862z" />
    <glyph glyph-name="Eacute" unicode="&#xc9;" horiz-adv-x="2405" 
d="M1110 1665l4 -5v-296q0 -8 -89 -30q-220 -89 -326 -313q-36 -117 -38 -187q0 -262 258 -448q135 -76 195 -81v-297l-9 -8q-138 0 -372 144q-373 290 -373 673v31q0 341 305 617q185 154 381 192zM1275 1665q210 -18 394 -136q225 -153 322 -440q34 -130 34 -229v-46
q0 -183 -72 -331h-4l-258 153v4q33 105 33 191q0 380 -360 508q-98 17 -98 25v293zM1610 504l259 -148q-41 -96 -230 -225q-227 -131 -368 -131l-5 5v296q0 7 106 30q113 44 187 119z" />
    <glyph glyph-name="Ecircumflex" unicode="&#xca;" horiz-adv-x="2400" 
d="M431 1589h1256q63 0 76 -93q-17 -82 -104 -82h-1211q-98 11 -98 77v26q0 56 81 72zM436 1073h757v-4q-91 -65 -175 -171h-582q-86 15 -86 81v14q0 65 86 80zM1534 1038h27q262 0 426 -256q58 -117 58 -229q0 -287 -291 -440q-106 -44 -207 -44q-263 0 -426 242
q-67 112 -67 247q0 292 297 439q87 41 183 41zM1484 814v-296q0 -63 149 -90q152 -54 175 -54h18q35 0 35 40q0 33 -156 72q-135 44 -135 54v283q0 44 -36 44h-9q-41 0 -41 -53zM906 558q8 0 22 -135q9 0 9 -40h-515q-72 21 -72 72v26q0 66 103 77h453z" />
    <glyph glyph-name="Edieresis" unicode="&#xcb;" horiz-adv-x="2400" 
d="M940 1670q85 -172 241 -172h28q152 0 246 172h4q96 -31 232 -125q70 -57 70 -70q-51 -78 -51 -167q0 -168 158 -264q38 -23 116 -33l23 5q23 -22 23 -158v-32q-6 -190 -28 -190h-9q-200 0 -274 -218l-9 -65v-28q0 -59 42 -144q-184 -155 -311 -181q-85 158 -246 158
q-155 0 -250 -158q-158 48 -307 181v14q42 67 42 148q0 210 -223 293l-69 4h-9q-19 93 -19 172v46q0 94 19 163l23 -5q191 0 269 218l9 65v28q0 69 -51 157q160 143 311 186zM833 826q0 -222 223 -339q43 -23 139 -32q210 0 329 222q33 84 33 158q0 249 -241 357
q-53 23 -121 23q-240 0 -343 -259q-19 -61 -19 -130z" />
    <glyph glyph-name="ae" unicode="&#xe6;" 
d="M1540 1665l128 -129l-700 -707l700 -701v-7l-120 -122h-8l-815 815v36z" />
    <glyph glyph-name="Amacron" unicode="&#x100;" horiz-adv-x="2400" 
d="M1593 1670h418q72 -15 72 -72v-400q0 -37 -47 -43h-4q-67 0 -67 54v350h-357q-69 0 -69 46v23q0 34 54 42zM1275 1480h539q52 0 69 -71v-501q-13 -71 -72 -71l-25 -4h-486q-121 8 -121 61v218h-451v-468h4l195 3q62 0 76 -82v-472q-7 -93 -76 -93h-532q-75 17 -75 65v511
q0 57 75 71l236 -3v454q0 80 53 104l22 3h473v215q22 60 96 60zM1272 1298v-283q0 -97 121 -114h289q129 0 129 146v222q0 144 -132 144h-279q-128 -13 -128 -115zM410 218q0 -132 125 -132h246q90 0 118 71q7 14 7 40v257q0 100 -71 100h-343q-82 0 -82 -114v-222z" />
    <glyph glyph-name="amacron" unicode="&#x101;" horiz-adv-x="2397" 
d="M898 1660h8q24 -92 36 -92l80 -24v-4q0 -7 -92 -32l-24 -88h-8q-15 100 -56 100l-56 16v4q0 7 88 32zM266 1656h4q20 -96 44 -96l72 -20v-8q-100 -18 -100 -52q-16 -60 -24 -60h-4q-13 96 -48 96q-60 16 -60 24v4q92 16 92 48q16 64 24 64zM1338 1632h92l212 -212v-68
l-1356 -1324h-4l-252 256v68zM582 1604q59 -191 68 -192q183 -52 184 -60q-193 -57 -196 -64l-56 -176h-8q-40 148 -56 184l-180 64v4l180 56q58 183 64 184zM1382 1472l-276 -276l96 -92l280 276zM1538 1032h8q20 -96 44 -96l72 -20v-8q-100 -24 -100 -48q-14 -68 -24 -68
q-23 96 -40 96l-72 20v4l88 36zM1890 844h104l8 -8v-352h344l8 -8v-108l-8 -8h-344v-352l-8 -8h-104l-8 8v352h-344l-8 8v108l8 8h344v352z" />
    <glyph glyph-name="Abreve" unicode="&#x102;" 
d="M892 1137h11q55 0 84 -26v-4h-4q-35 0 -169 -38v-2h5q129 30 198 30l42 -30v-4h-22q-150 0 -331 -75v-3h4q148 54 301 54q125 0 162 -44q36 -18 36 -24h-5q-87 28 -187 28q-351 -11 -436 -207l-3 -26q0 -40 54 -79h-7q-145 46 -145 163v7q0 162 300 264q80 16 112 16z
M804 1067v-4h8v4h-8zM1392 1025h42l2 -3h4l-4 -17v-10h28l6 -7v-7q0 -20 -26 -20q-18 0 -18 -17l-2 -24h32l8 -6q0 -23 -24 -23q-15 0 -20 -41l34 -4q0 -30 -28 -30q-20 0 -20 -54l34 -4h183v-20l-11 -10h-206q-49 0 -78 27q-17 -18 -46 -34l-5 11q0 11 29 60q10 82 19 82
h31l3 -4h3l-14 -74q8 0 8 -10h3l17 105h-60l-5 3h-3q3 26 10 26h51l7 41h-38l-3 4h-3q3 30 10 30h40q2 30 10 30zM1757 1025h31q7 0 7 -10h27q0 10 7 10h30q7 0 7 -10h29l5 -3h3q-3 -24 -10 -24h-34q0 -10 -6 -10h-34v10h-31q0 -10 -17 -10v-3h102l3 -4h3q-7 -91 -40 -91
h-38l-6 6l-41 -2h-43l-4 2h-4l10 49q-20 0 -20 6v7q1 8 32 21q0 12 20 12v7h-32l-6 7q2 20 10 20h34q0 10 6 10zM1937 1025h31l3 -3h3l-6 -13h70l7 -7q0 -24 -21 -24q0 -14 -40 -61q40 -8 40 -16v-5l-6 -20l-4 4h-12q0 -34 -31 -34l-88 -3l-4 -3v-7h102l6 -7q-3 -20 -10 -20
h-98l-6 -7v-7h124l7 -6v-4q0 -17 -10 -20h-128q-5 -38 -37 -38h-54l-8 8v6q0 10 42 14l2 10h-141q-7 0 -7 10q4 20 10 20h138l8 7v7h-122v20l6 7h122v10h-124l-4 3h-4q4 28 10 28h237l57 2v8l-54 12q-19 -10 -67 -20l-3 4v6q0 28 36 28l8 6q-16 34 -22 34h-5l-5 -3h-2l-4 3
q0 24 28 34zM1494 1012h155l4 -3h4q-11 -105 -51 -105h-41l-3 3h-4q0 31 34 31q9 9 10 40h-37q0 -56 -85 -82v-2h146l3 -3h4q-12 -115 -58 -115h-115l-4 2h-2l20 116h-8v20q52 37 52 64h-34v15q3 19 10 19zM696 985v-4h8v4h-8zM1934 969q11 0 19 -28h5l23 37h-28
q-19 -2 -19 -9zM1731 944v-3h78l2 -3h4l-6 -34h10q6 0 13 47h-78zM1745 920v-16h12l18 3v13h-30zM887 907q51 0 66 -23v-14q-77 -78 -229 -78v-3l61 -11q130 0 260 92l10 10q20 -16 20 -60v-10q0 -170 -305 -268q-75 -17 -111 -17h-7q-40 0 -87 24v7q44 0 159 20v3h-8
q-67 -10 -141 -10h-31q-15 0 -64 37l92 -3q135 0 290 47v3h-4q-117 -29 -240 -29q-161 0 -273 63v7q92 -30 193 -30q93 4 132 14l57 -8h34q106 0 244 82v3h-4q-102 -47 -189 -47h-14q-122 10 -122 60l-4 14q0 90 197 125h18zM1514 860l-6 -50h44q23 0 23 47l3 3h-64z
M1267 694h17l7 -7v-3l-7 -6h-27l-3 -14q34 -20 34 -40q0 -18 -40 -24q-28 3 -28 10l7 10l16 -4q18 0 21 14q-34 21 -34 40q0 24 37 24zM1609 692h64v-8l-6 -6h-44l-4 -20h38l6 -8v-3l-6 -7h-41v-24h37l4 4h2l4 -4v-6l-6 -7h-63l-5 7q10 82 20 82zM1863 692h10l6 -8l-6 -6
h-10l-7 6zM1308 670h8l6 -6l-6 -40l12 -8q28 8 28 52l3 2h10l7 -6q-7 -61 -17 -61h-7l-10 7q0 -7 -26 -10q-22 6 -25 16q7 54 17 54zM1396 670h38q26 0 26 -26v-7q0 -27 -36 -37l-28 10q0 -36 -10 -36h-10l-4 2h-3q15 92 23 92zM1500 670h10q19 0 28 -17v-3q0 -8 -40 -13
l16 16v5h-16q-14 -7 -14 -24q0 -18 20 -18h14l3 4h3l4 -4v-3l-10 -10h-28q-17 0 -26 17v14q5 36 36 36zM1552 670h6l14 -2l13 2l7 -6v-4q0 -4 -27 -13q-5 -44 -13 -44h-10l-4 3h-4q12 64 18 64zM1686 670h11l6 -6l22 6h20l9 -10q0 -57 -13 -57h-6l-8 7l8 37l-10 6h-5
q-24 0 -29 -47l-5 -3h-9l-4 3h-3q8 64 16 64zM1805 670h34l3 -2h3q-10 -94 -36 -94h-42l-6 5v4l4 3v4l23 -4q23 0 23 24l-20 -7h-10q-24 0 -24 24v3q0 36 48 40zM1859 670h10l4 -2h3q-7 -65 -17 -65h-10l-4 3h-3q12 64 17 64zM1893 670h14v-6h2l20 6h21l10 -10
q0 -57 -13 -57h-13l3 47l-3 3h-17q-11 0 -22 -50h-12l-7 7q8 60 17 60zM2002 670h9q18 0 27 -17v-3q0 -8 -41 -13l17 16v5h-17q-13 -7 -13 -24q0 -18 20 -18h14l3 4h3l4 -4v-3l-10 -10h-26q-20 0 -29 17v24q16 26 39 26zM866 658v-5h6v5h-6zM1402 647v-20l11 -11h11
q10 4 16 24q-6 16 -14 18h-13zM1781 640v-13l10 -11q28 0 28 34v8h-4q-27 0 -34 -18zM727 583v-4h9v4h-9z" />
    <glyph glyph-name="abreve" unicode="&#x103;" 
d="M1388 1650h30q80 0 108 -118v-4q-25 -120 -117 -120h-21l-57 16l-216 -212h7q137 64 261 64h56q207 0 417 -156l50 52l155 -149l-149 -143h-6q-10 0 -154 143l52 52q-189 137 -395 137q-173 0 -339 -102v-4l19 -21q-137 -144 -158 -144q0 12 -26 15v-5q-99 -150 -99 -292
v-57q0 -180 146 -344l45 45h5l155 -143l-155 -144h-5l-153 144l51 56q-159 196 -159 422q0 126 62 273q-137 -113 -217 -212q16 -28 16 -61q0 -86 -118 -113h-5q-129 14 -129 108v21q0 92 129 113l66 -16l293 287l-50 52l153 149l56 -50l299 282l-16 40v26q22 113 113 113z
M1336 1521q0 -40 68 -50q57 16 57 57q-13 60 -63 60t-62 -67zM931 1147l-56 -62l56 -57h5l56 57zM1845 1019l67 -57l57 61q-50 56 -63 57zM407 643q17 -57 60 -57q64 10 64 57v4q0 39 -57 57q-52 0 -67 -61zM941 160q48 -57 61 -57l63 57v5q-11 0 -63 51q-13 0 -61 -56z" />
    <glyph glyph-name="Aogonek" unicode="&#x104;" 
d="M355 1335h490l7 -7v-52l-7 -6h-490l-7 6v52zM889 1335h459l8 -7v-919l-8 -7h-459l-7 7v919zM355 1120h490l7 -6v-55l-7 -7h-490l-7 7v55zM1734 916h68l7 -6v-247h237l8 -5v-72l-8 -7h-231l-6 -6v-239l-7 -8h-68l-7 8v245h-238l-8 7v72l8 5h238v247zM355 903h490l7 -8v-51
l-7 -6h-490l-7 6v51zM355 685h490l7 -8v-50l-7 -8h-490l-7 8v50zM355 470h490l7 -7v-54l-7 -7h-490l-7 7v54z" />
    <glyph glyph-name="aogonek" unicode="&#x105;" horiz-adv-x="2400" 
d="M692 1346h373l7 -7v-331l-7 -6h-158v-222l7 -7h373l7 -7v-271l-7 -7h-43l-7 7v221h-379l-8 7v106h-274v-334l-6 -7h-43l-6 7v387l6 7h323v113h-158l-6 6v331zM1744 874h66l8 -6v-232h224l7 -7v-67l-7 -7h-224v-232l-8 -7h-66l-7 7v232h-225l-7 7v67l7 7h225v232zM362 661
h98l8 -8v-45l-8 -7h-49v-225h275v225h-50l-7 7v45l7 8h98l7 -8v-330l-7 -7h-372l-7 7v330zM1079 661h99l6 -8v-45l-6 -7h-49v-225h273v225h-49l-6 7v45l6 8h99l7 -8v-330l-7 -7h-373l-7 7v330z" />
    <glyph glyph-name="Cacute" unicode="&#x106;" 
d="M1427 1434h20q109 0 166 -51v-8h-8q-68 0 -332 -75v-5h8q256 59 392 59l83 -59v-7h-43q-296 0 -654 -147v-7h7q293 106 595 106q249 0 321 -87q71 -35 71 -47h-12q-171 55 -368 55q-694 -23 -860 -409l-8 -52q0 -80 108 -153h-13q-289 88 -289 319v13q0 321 594 523
q157 32 222 32zM1415 979q102 0 132 -45v-27q-152 -155 -453 -155v-7l119 -20q258 0 514 182l21 20q39 -32 39 -119v-21q0 -335 -601 -530q-150 -32 -219 -32h-15q-80 0 -171 47v12q86 0 313 41v7h-15q-132 -19 -279 -19h-62q-30 0 -127 71l182 -5q268 0 574 92v8h-8
q-231 -59 -475 -59q-317 0 -539 127v12q182 -61 381 -61q184 8 260 28l112 -15h68q212 0 482 162v8h-7q-202 -95 -373 -95h-28q-241 20 -241 120l-7 26q0 178 388 247h35z" />
    <glyph glyph-name="cacute" unicode="&#x107;" horiz-adv-x="2373" 
d="M876 1432h15q169 0 322 -110q69 -53 130 -133q111 -166 111 -355q0 -251 -183 -439q-172 -160 -389 -160q-243 0 -423 196q-147 180 -147 395v14q0 231 166 416q62 60 96 81q144 95 302 95zM371 882q128 -18 128 -26l23 -14q37 0 98 23v3q0 44 26 57q14 7 26 7
q27 0 57 -26q10 -10 24 -39q37 17 58 17q44 0 84 -70q4 -13 9 -47l5 2h1l60 3q51 0 82 -67q4 -18 4 -31q0 -54 -52 -66l-71 -11q-28 -19 -42 -42l-5 -15l2 -41q0 -37 -45 -87q-34 -25 -66 -25q-12 0 -53 8l-20 1h-17q-13 0 -78 -8l-12 -1v-1q137 -91 280 -91h8
q207 0 363 160q71 81 93 136q56 117 56 243q-2 51 -7 83q-44 -29 -44 -85q0 -98 -36 -116q-30 -23 -69 -23h-12q-49 0 -84 48q-11 20 -11 37q0 15 16 73v7q0 25 -58 46q-57 31 -57 99q0 89 136 181q27 17 70 28q6 0 6 2q-161 159 -365 159q-192 0 -346 -140
q-61 -63 -85 -107q-29 -46 -48 -100q-23 -58 -32 -144zM1574 1369h478l1 -2v-122l-1 -2h-478l-2 2v122zM895 1276q43 0 83 -80q9 -23 9 -41q0 -20 -17 -87q-19 -52 -91 -82q-21 -7 -34 -7q-37 0 -58 39q-4 10 -5 24q0 21 22 74l17 92q13 42 39 58q20 10 35 10zM837 1039h10
q41 10 63 40q11 15 20 79q-5 27 -37 58q-17 -10 -17 -24q-4 -13 -16 -87q-17 -46 -23 -66zM1574 1179h478l1 -2v-121l-1 -2h-478l-2 2v121zM1092 1002q0 -36 34 -48q80 -33 80 -95v-8q0 -14 -15 -68v-6q0 -15 38 -24h7q31 0 46 16q3 0 9 98q11 52 42 78q22 21 43 35v1
q-26 100 -86 178q-63 -9 -95 -28q-103 -76 -103 -129zM1574 991h478l1 -2v-122l-1 -3h-478l-2 3v122zM680 879q0 -23 -12 -47q-25 -25 -48 -30q-54 -19 -96 -19h-2q-26 0 -50 21q-45 10 -103 18l1 -1v-3q0 -137 80 -275q25 -42 72 -93q30 -4 54 -4h13q17 0 90 9h10
q50 0 88 -10q20 0 42 27l13 29l-2 40q0 44 52 93q34 26 60 26q56 6 56 9l1 7q0 21 -26 37l-5 1q-44 -5 -62 -5q-39 0 -55 40l-11 44q-22 33 -37 33q-10 -10 -41 -17l-13 -1q-38 0 -62 60zM1574 802h478l1 -2v-122l-1 -2h-478l-2 2v122zM1575 613h114l2 -2v-124l-2 -2h-114
l-1 2v124zM1756 613h117l2 -2v-124l-2 -2h-117l-2 2v124zM1934 613h118l1 -2v-124l-1 -2h-118l-1 2v124zM1575 425h114l2 -3v-121l-2 -1h-114l-1 1v121zM1756 425h117l2 -3v-121l-2 -1h-117l-2 1v121zM1934 425h118l1 -3v-121l-1 -1h-118l-1 1v121z" />
    <glyph glyph-name="Ccircumflex" unicode="&#x108;" 
d="M1447 1680h46q198 0 329 -218q50 -100 50 -206q0 -250 -233 -383q-79 -38 -151 -38h-25q-205 0 -334 218q-49 99 -49 184v41q0 217 217 361q93 41 150 41zM689 1552q194 0 304 -213q26 -74 26 -128v-34q0 -194 -192 -309q-64 -33 -135 -33h-14q-212 0 -312 245
q-15 51 -15 93v38q0 200 207 315q70 26 131 26zM1204 1256q0 -199 198 -278q44 -11 75 -11q167 0 252 187q19 65 19 106q0 179 -177 269q-47 20 -97 20q-194 0 -267 -230zM475 1204v-20q0 -154 169 -214l45 -3q74 0 143 63q63 72 63 154v8q0 172 -176 225h-49
q-128 0 -191 -168zM1992 786q60 -16 60 -56v-691q-10 -60 -52 -60h-12q-25 0 -143 86l-157 110v-61q-18 -124 -124 -124h-1029q-92 0 -124 106v551q0 88 98 124h1070q68 0 105 -93l4 -31v-59q255 180 289 194zM535 640v-519h1029v519h-1029zM1688 426v-90l240 -169v428z
M782 433q57 -4 57 -56q0 -39 -48 -46h-95q-37 0 -45 54q0 41 61 48h70zM1023 433h52q68 0 68 -56q-11 -46 -45 -46h-97q-36 0 -45 50q0 52 67 52zM1328 433h52q67 0 67 -56q-12 -46 -45 -46h-97q-39 0 -45 54q0 48 68 48z" />
    <glyph glyph-name="ccircumflex" unicode="&#x109;" horiz-adv-x="2338" 
d="M358 1512h668l7 -7v-217h671l8 -7v-216l-8 -8h-1126l-220 -887h-7v1335zM2049 947v-3l-224 -789l-3 -4h-1350l-7 8l227 788h1357z" />
    <glyph glyph-name="Cdotaccent" unicode="&#x10a;" horiz-adv-x="2338" 
d="M776 1559h170q137 -113 230 -113h18q99 0 235 113h184q43 0 162 -127q252 -245 252 -262l11 -47q0 -81 -151 -196q-106 -102 -181 -156v-556q0 -79 -148 -113h-728q-131 12 -159 105l-3 33v531q-131 102 -303 268q-18 34 -18 55v29q0 49 105 138q282 294 302 294z" />
    <glyph glyph-name="cdotaccent" unicode="&#x10b;" horiz-adv-x="2338" 
d="M437 1668h1518q67 0 75 -94v-1468q0 -102 -102 -102h-1464q-98 8 -98 71v1522q14 71 71 71zM523 1511v-1346h1346v1346h-1346zM1131 1256h130q94 0 94 -94v-840q-13 -83 -79 -83h-160q-69 0 -79 91v824q0 102 94 102zM1547 942h173q75 -13 75 -75v-541q0 -87 -87 -87
h-153q-74 14 -74 75v553q15 75 66 75zM672 553h165q75 -11 75 -74v-165q-13 -75 -75 -75h-161q-78 15 -78 79v157q13 78 74 78z" />
    <glyph glyph-name="Ccaron" unicode="&#x10c;" horiz-adv-x="2338" 
d="M374 1646h1636q40 0 40 -64v-1184q0 -68 -56 -68h-564q8 -136 60 -136q26 -12 56 -12h28l8 -8v-144l-8 -8h-764l-8 8v144l8 8h12q124 0 124 68q12 19 12 64v16h-560q-36 0 -52 32v1256q9 19 28 28zM502 1446v-764q0 -33 40 -40h1308q40 0 40 48v748q0 52 -44 52h-1300
q-44 -7 -44 -44z" />
    <glyph glyph-name="ccaron" unicode="&#x10d;" horiz-adv-x="2338" 
d="M1155 1677h71q372 0 645 -340q163 -228 163 -498q0 -423 -381 -696q-209 -137 -462 -137q-445 0 -726 427q-102 203 -102 381v71q0 316 284 589q252 203 508 203zM439 864v-40q0 -395 381 -640q180 -102 381 -102q425 0 676 417q81 176 81 350q0 399 -381 655
q-188 97 -361 97h-40q-353 0 -600 -320q-137 -199 -137 -417zM1191 1362q219 0 305 -188l10 -76v-10q0 -150 -198 -290q-51 -57 -51 -137v-40l-10 -11h-117l-15 11q0 216 147 309q96 81 96 153q-23 157 -157 157h-15q-130 0 -158 -152q-9 -23 -20 -26h-122l-10 11
q0 201 229 279zM1125 534h132l10 -10v-137l-10 -10h-132l-15 15v127z" />
    <glyph glyph-name="Dcaron" unicode="&#x10e;" horiz-adv-x="2338" 
d="M438 1670h437q73 -15 73 -73v-24q0 -59 -91 -73h-201l389 -394l-116 -116h-6l-388 383v-195q-14 -91 -73 -91h-24q-73 15 -73 73v437q17 73 73 73zM1518 1670h437q79 0 79 -109v-364q0 -110 -79 -110h-12q-76 0 -85 91v158l6 43l-394 -389h-6l-116 116l389 394h-201
q-91 9 -91 85v12q15 73 73 73zM923 687h6l116 -116l-389 -394h201q91 -9 91 -85v-12q0 -79 -110 -79h-376q-97 13 -97 79v437q15 73 73 73h12q76 0 85 -91v-195zM1464 687h6l394 -389l-6 43v158q12 91 79 91h18q66 0 79 -97v-377q0 -115 -103 -115h-389q-97 13 -97 79v18
q0 67 91 79h201l-389 394z" />
    <glyph glyph-name="dcaron" unicode="&#x10f;" horiz-adv-x="2338" 
d="M470 1662l394 -389v203q18 90 85 90q85 -21 85 -80v-426q0 -68 -90 -85h-405q-90 11 -90 85v11q19 75 80 75h218l-394 399zM1897 1662l117 -117v-5l-389 -394h224q57 0 74 -86q0 -77 -106 -85h-389q-95 13 -95 96v399q17 96 85 96q90 -21 90 -85l-5 -128v-80zM523 682
h426q85 -10 85 -85v-415q-10 -85 -85 -85q-85 12 -85 85v202l-389 -383h-5l-117 117l389 394h-203q-90 10 -90 85v11q21 74 74 74zM1412 682h426q85 -12 85 -85q0 -69 -90 -85h-208l389 -394v-5l-112 -112h-5l-394 389v-96l5 -112q0 -72 -96 -85q-79 13 -79 106v373
q10 106 79 106z" />
    <glyph glyph-name="Dcroat" unicode="&#x110;" horiz-adv-x="2338" 
d="M359 1632h1229l10 -11v-80l-10 -10h-1138v-1395h1394v791l10 10h81l10 -10v-881l-10 -11h-1576l-10 11v1575zM1915 1531l131 -136l-922 -957h-5l-468 489v5q62 74 126 131l342 -348h5z" />
    <glyph glyph-name="dcroat" unicode="&#x111;" horiz-adv-x="2338" 
d="M380 1667h1641l10 -10v-1641l-10 -10h-1641l-10 10v1641zM475 1562v-1451h1451v1451h-1451z" />
    <glyph glyph-name="Emacron" unicode="&#x112;" horiz-adv-x="2338" 
d="M1202 1668l420 -420v-6h-308v-793l-12 -12h-195l-12 12v793h-314v6zM367 218h1675l12 -12v-195l-12 -12h-1675l-12 12v195z" />
    <glyph glyph-name="emacron" unicode="&#x113;" horiz-adv-x="2338" 
d="M359 1669h1670l14 -13v-190l-14 -13h-1670l-13 13v190zM1109 1224h190l13 -13v-786h308v-7l-419 -419l-419 419v7h314v786z" />
    <glyph glyph-name="Ebreve" unicode="&#x114;" horiz-adv-x="2338" 
d="M1162 1665h60q300 0 565 -246q239 -258 239 -583v-11q0 -395 -344 -667q-226 -158 -481 -158h-11q-422 0 -696 376q-133 220 -133 428v60q0 313 267 583q257 218 534 218zM480 836q0 -383 352 -618q176 -95 344 -95h35q311 0 545 274q147 203 147 418v35q0 336 -309 573
q-193 123 -404 123q-276 0 -499 -208q-211 -223 -211 -502zM972 1110h460q39 0 39 -32v-477q0 -32 -39 -32h-460q-38 0 -38 32v477q0 32 38 32z" />
    <glyph glyph-name="ebreve" unicode="&#x115;" horiz-adv-x="2338" 
d="M1168 1667h52q310 0 582 -263q181 -221 208 -416q14 -71 14 -149v-14q0 -321 -243 -579q-257 -246 -582 -246h-14q-409 0 -679 357q-149 223 -149 447v52q0 347 302 624q248 187 509 187zM464 859v-55q0 -251 205 -478q226 -219 516 -219h11q345 0 582 298
q139 198 139 423v11q0 365 -326 603q-191 118 -371 118h-55q-311 0 -552 -281q-149 -206 -149 -420zM960 1119q29 0 121 -104l111 -107q200 208 215 208l14 3q52 -10 52 -52v-6q0 -25 -128 -143l-80 -83q208 -207 208 -218v-21q-11 -45 -45 -45h-10q-25 0 -108 94l-121 117
q-204 -211 -219 -211h-20q-36 0 -45 52q0 29 104 121l107 111q-208 208 -208 219v20q0 37 52 45z" />
    <glyph glyph-name="Edotaccent" unicode="&#x116;" horiz-adv-x="2338" 
d="M1777 1667h35q115 0 195 -131q27 -52 27 -103v-4q0 -140 -165 -261l-572 -534h-4l-207 207q521 744 553 776q74 50 138 50zM1040 753l161 -161q-116 -210 -277 -384q-210 -204 -399 -204h-15q-90 0 -154 65z" />
    <glyph glyph-name="edotaccent" unicode="&#x117;" horiz-adv-x="2338" 
d="M1167 1666h57q335 0 605 -292q201 -246 201 -541q0 -363 -295 -632q-246 -201 -542 -201q-375 0 -647 314q-182 238 -182 492v57q0 308 254 572q259 231 549 231zM485 837v-4q0 -348 296 -576q192 -132 393 -132h42q325 0 564 303q125 195 125 386v42q0 315 -288 553
q-194 136 -420 136h-4q-377 0 -606 -341q-102 -171 -102 -367zM1076 1189h4l469 -352v-4q-461 -352 -473 -352v708z" />
    <glyph glyph-name="Eogonek" unicode="&#x118;" horiz-adv-x="2338" 
d="M628 1142h403l7 -7v-143l-7 -7h-389q-101 0 -140 -116l-4 -28v-17q0 -101 116 -140l31 -3h386l7 -7v-147l-7 -7h-352q-271 0 -335 260l-3 30v45q0 148 167 256q76 31 120 31zM1353 1142h403q139 0 246 -150q44 -87 44 -158q0 -191 -194 -290q-63 -24 -147 -24h-352l-7 7
v147l7 7h386q105 0 143 116l4 27v17q0 101 -116 140l-28 4h-389l-7 7v143z" />
    <glyph glyph-name="eogonek" unicode="&#x119;" horiz-adv-x="2338" 
d="M839 1663h702q77 -10 77 -76h4l-4 -29l4 -473l-4 -153l-5 -4h-120l-9 9v592h-616v-377l-10 -10h-353v-1007h888l10 -10v-114l-10 -10h-941q-63 0 -81 91v1084zM1508 837h219l10 -10v-291h286l10 -10v-219l-10 -10h-286v-286l-10 -10h-219l-10 10v286h-291l-10 10v219
l10 10h291v291z" />
    <glyph glyph-name="Ecaron" unicode="&#x11a;" horiz-adv-x="2338" 
d="M940 1672h1046q28 -15 28 -52v-1568q0 -52 -42 -52h-707q-51 3 -51 42q0 31 42 38h674v1512h-942v-269q-7 -47 -48 -47h-235v-471q-6 -42 -42 -42q-31 0 -38 42v509q0 27 202 245q87 113 113 113zM818 739h14q18 0 316 -202q148 -92 155 -118q0 -31 -113 -94
q-343 -236 -363 -236q-26 0 -33 52v94h-405l-9 10v344l9 9h405v94q0 37 24 47z" />
    <glyph glyph-name="ecaron" unicode="&#x11b;" horiz-adv-x="2338" 
d="M1175 1660h46q341 0 615 -294q192 -249 192 -516v-40q0 -326 -265 -588q-251 -222 -545 -222h-40q-343 0 -615 291q-195 248 -195 516v46q0 341 291 612q246 195 516 195zM484 830q0 -368 334 -605q186 -106 350 -106h60q241 0 463 195q218 227 218 486v60
q0 287 -261 526q-212 158 -450 158q-317 0 -546 -254q-168 -210 -168 -460zM996 1181h7q62 0 69 -83v-536q-7 -83 -72 -83q-73 13 -73 73v556q13 73 69 73zM1393 1181h7q61 0 69 -83v-536q-8 -83 -73 -83t-72 80v542q8 80 69 80z" />
    <glyph glyph-name="Gcircumflex" unicode="&#x11c;" horiz-adv-x="2338" 
d="M1180 1672h62q223 0 452 -152q74 -56 111 -94q167 152 179 152h4q38 0 38 -45v-469q-2 -55 -35 -55q-484 51 -518 62q-13 14 -13 27v4q0 20 103 107l73 62v7q-196 166 -418 166q-321 0 -522 -290q-90 -154 -90 -322q0 -327 304 -528q151 -80 301 -80h10q295 0 491 256
q52 67 103 221q40 48 83 48h21q78 0 100 -103v-21q-39 -173 -176 -338q-136 -143 -228 -183q-194 -104 -377 -104h-55q-315 0 -587 266q-221 260 -221 539v62q0 279 221 539q159 180 442 248q72 18 142 18z" />
    <glyph glyph-name="gcircumflex" unicode="&#x11d;" horiz-adv-x="2338" 
d="M1053 1665h3v-272q509 0 742 -306q102 -165 102 -355v-48q0 -291 -256 -527q-192 -142 -341 -157v6q84 10 210 119q144 146 144 345q0 290 -252 393q-134 51 -349 51v-323h-3l-559 534q101 105 559 540z" />
    <glyph glyph-name="Gbreve" unicode="&#x11e;" horiz-adv-x="2338" 
d="M1391 1575q55 0 324 -293q228 -205 228 -259v-18q0 -76 -214 -260q-705 -719 -727 -719l-38 -8h-412q-166 0 -166 127v418q0 107 119 191q805 821 838 821h48zM513 634l214 -213l861 861q-191 206 -214 206q-22 0 -861 -854zM1650 1219l-860 -869l212 -205
q854 839 854 860v18zM473 540v-381q5 -47 24 -47h404zM348 1321v346h339v-346h-339z" />
    <glyph glyph-name="gbreve" unicode="&#x11f;" horiz-adv-x="2338" 
d="M1199 1659l351 -321v-2h-291l2 -436h422v296h2l292 -361l-292 -359h-2v293h-422l-2 -465h291v-2l-351 -299h-3l-349 299v2h289v465h-424v-293h-2l-292 359l292 361h2v-296h424v436h-291v2q307 277 354 321z" />
    <glyph glyph-name="Gdotaccent" unicode="&#x120;" horiz-adv-x="2338" 
d="M1182 1685q290 0 532 -188l187 182h13l125 -651l-6 -6l-651 131v6l206 213q-195 132 -394 132h-19q-390 0 -606 -401q-57 -146 -57 -275q0 -141 63 -276q-56 -35 -163 -75q-75 160 -75 338v32q0 501 513 769q182 69 332 69zM1188 922q75 0 88 -101q-21 -81 -82 -81h-25
q-75 15 -75 75v32q0 61 94 75zM1144 828q0 -16 38 -38q37 10 37 44q-12 29 -25 31h-6q-44 0 -44 -37zM1858 734l168 -31q-21 -119 -31 -119q-38 0 -169 50zM1745 465q32 0 156 -94q-64 -98 -144 -169h-6l-112 125v6q106 113 106 132zM675 396q102 -112 125 -113v-12
q-64 -102 -100 -138q-59 24 -163 150q115 113 138 113zM1488 227q75 -130 75 -156v-7q-75 -35 -206 -68q-13 12 -38 168zM969 196l169 -44v-6l-6 -157l-19 -6q-207 21 -207 56q50 157 63 157z" />
    <glyph glyph-name="gdotaccent" unicode="&#x121;" horiz-adv-x="2338" 
d="M1060 1670l110 -136l-140 -75q-317 -201 -317 -369q0 -130 154 -176l44 -4q77 0 444 118q62 18 171 27q264 0 361 -286l8 -75v-17q0 -337 -606 -669l-18 -4q-118 137 -118 149q125 40 316 181q233 174 233 325q0 99 -123 176l-70 9h-18q-83 0 -431 -115q-94 -26 -162 -26
h-40q-135 0 -233 101q-101 112 -101 242v22q0 267 374 514q138 86 162 88z" />
    <glyph glyph-name="uni0122" unicode="&#x122;" horiz-adv-x="2398" 
d="M1272 603h-352q-26 12 -28 30q-1 15 12 32q16 20 40 36q321 228 362 242q23 14 43 17q16 3 29 -2q16 -5 23 -15q371 -234 406 -272q17 -63 -7 -68h-371v-374q0 -35 -32 -59q-31 -23 -75 -23h49q-43 0 -71 26q-28 25 -28 61v369zM802 1218q-107 0 -201 -54
q-95 -53 -119 -128l-274 -851q-24 -74 36 -128q59 -54 166 -54h1220q107 0 201 54q95 54 119 128l274 851q24 74 -36 128q-59 54 -166 54h-1220zM1835 1308v41q0 94 -76 161q-75 68 -179 68h-662l-5 8l-59 77q-31 41 -87 68q-54 27 -104 27h-393q-49 0 -83 -27
q-35 -27 -35 -68v-1278l216 707q27 89 133 152q106 64 226 64h1108z" />
    <glyph glyph-name="wanchengbianji" unicode="&#x123;" horiz-adv-x="2398" 
d="M1224 1646h38q235 0 458 -160q114 -99 157 -162q149 -215 149 -459q0 -333 -259 -583q-236 -201 -523 -201q-332 0 -582 257q-137 162 -180 337q-21 100 -21 170v38q0 215 136 424q93 131 216 211q203 128 411 128zM540 864q0 -300 232 -523q209 -180 472 -180
q317 0 543 257q159 202 159 447q0 300 -233 522q-209 180 -471 180q-299 0 -522 -232q-180 -210 -180 -471zM1104 1217h282q128 0 193 -128q16 -32 16 -80v-290q0 -132 -140 -198q-33 -9 -67 -9h-290q-132 0 -198 140q-10 34 -10 69v282q0 132 124 196q32 18 90 18z" />
    <glyph glyph-name="dian" unicode="&#x124;" horiz-adv-x="2005" 
d="M0 -203v2002h2002v-2002h-2002zM1902 -103v1802h-1802v-1802h1802zM529 1627q80 0 155 -40t118 -116t43 -158q0 -83 -42 -157t-117 -116t-157 -42q-81 0 -156 42t-116 116t-41 157q0 82 42 158t117 116t154 40zM358 904q32 0 60 -15t45 -44t17 -61t-16 -60t-45 -44
t-61 -16q-30 0 -59 16t-44 44t-15 60t16 61t44 44t58 15zM739 928q32 0 60 -15t45 -44t17 -61t-16 -60t-45 -44t-61 -16q-30 0 -59 16t-44 44t-15 60t16 61t44 44t58 15zM1033 1220q32 0 60 -15t45 -44t17 -61t-16 -60t-45 -44t-61 -16q-30 0 -59 16t-44 44t-15 60t16 61
t44 44t58 15zM1231 1603q32 0 60 -15t45 -44t17 -61t-16 -60t-45 -44t-61 -16q-30 0 -59 16t-44 44t-15 60t16 61t44 44t58 15zM1690 1637q32 0 60 -15t45 -44t17 -61t-16 -60t-45 -44t-61 -16q-30 0 -59 16t-44 44t-15 60t16 61t44 44t58 15zM1586 1162q32 0 60 -15t45 -44
t17 -61t-16 -60t-45 -44t-61 -16q-30 0 -59.5 16t-44.5 44t-15 60t16 61t44.5 44t58.5 15zM809 454q32 0 60 -15t45 -44t17 -61t-16 -60.5t-45 -44.5t-61 -16q-30 0 -59 16t-44 44.5t-15 60.5t16 61t44 44t58 15zM306 470q32 0 60 -15t45 -44t17 -61t-16 -60.5t-45 -44.5
t-61 -16q-30 0 -59 16t-44 44.5t-15 60.5t16 61t44 44t58 15zM1656 283q32 0 60 -15t45 -44t17 -61t-16 -60t-45 -44t-61 -16q-30 0 -59 16t-44 44t-15 60t16 61t44 44t58 15zM1307 644q32 0 60 -15t45 -44t17 -61t-16 -60t-45 -44t-61 -16q-30 0 -59 16t-44 44t-15 60
t16 61t44 44t58 15z" />
    <glyph glyph-name="xian" unicode="&#x125;" horiz-adv-x="2005" 
d="M0 -202v2001h2001v-2001h-2001zM1901 -102v1801h-1801v-1801h1801zM300 1671v-1733h-74v1733h74zM486 1671v-1733h-76v1733h76zM858 1671v-1733h-74v1733h74zM1059 1671v-1733h-77v1733h77zM1245 1671v-1733h-76v1733h76zM1609 1673v-1733h-74v1733h74zM1795 1673v-1733
h-74v1733h74z" />
    <glyph glyph-name="mian" unicode="&#x126;" horiz-adv-x="2005" 
d="M0 -200v1999h1999v-1999h-1999zM1899 -100v1799h-1799v-1799h1799zM234 1623l981 -490l-981 -489v979zM1465 1167q94 0 184 -48t141 -139t51 -188q0 -96 -50 -185t-139 -139t-187 -50t-187 50t-138 139t-49 185q0 97 50 188t140 139t184 48zM348 -46v979h839v-979h-839z
" />
    <glyph glyph-name="duobianxing" unicode="&#x127;" horiz-adv-x="2998" 
d="M1742 766h1l592 -591v-2h-267l98 -245l-122 -51q-103 255 -103 258l-196 -130h-3v761zM1127 1674h913q309 -464 458 -824q-156 -317 -255 -444l-97 108l199 336l-365 672h-789q-108 -179 -406 -672l431 -713h419v-86v-51h-508q-210 311 -507 850q391 652 507 824z" />
    <glyph glyph-name="yuan" unicode="&#x128;" horiz-adv-x="2998" 
d="M1642 766h1l592 -591v-2h-267l98 -245l-122 -51q-103 255 -103 258l-196 -130h-3v761zM2177 839q0 297 -210.5 507.5t-507.5 210.5t-507.5 -210.5t-210.5 -507.5t211 -507q208 -209 501 -211v-121q-344 2 -587 246q-246 245 -246 593t245.5 593.5t593.5 245.5
t593.5 -245.5t245.5 -593.5q0 -204 -84 -372l-96 82q59 133 59 290z" />
    <glyph glyph-name="xi" unicode="&#x129;" horiz-adv-x="2998" 
d="M1642 766h1l592 -591v-2h-267l98 -245l-122 -51q-103 255 -103 258l-196 -130h-3v761zM2213 839q0 312 -221 533t-533 221t-533 -221t-221 -533t221 -533t533 -221h2v-85h-2q-348 0 -593.5 245.5t-245.5 593.5t245.5 593.5t593.5 245.5t593.5 -245.5t245.5 -593.5
q0 -204 -84 -372l-68 56q67 144 67 316z" />
    <glyph glyph-name="duanmian" unicode="&#x12a;" 
d="M1023 1694h286l3 -4v-285l-3 -4h-80v-162h751l4 -4v-777l-4 -4h-751v-162h80l3 -4v-285l-3 -4h-286l-4 4v285l4 4h87v162h-758l-4 4v777l4 4h758v162h-87l-4 4v285zM465 1120v-547h645v547h-645zM1229 1120v-547h636v547h-636z" />
    <glyph glyph-name="duandian" unicode="&#x12b;" horiz-adv-x="2390" 
d="M1946 1693l92 -92v-2l-646 -648v-296l-4 -4h-296l-648 -646h-2l-92 92l648 650v294l4 4h294zM507 1613l46 -46l-92 -92h-2l-44 44v2zM677 1441h2l94 -94l-92 -92h-2l-94 94zM899 1221l94 -94v-2l-91 -90h-3l-94 94zM1470 651l94 -94v-3l-92 -91l-94 94v2zM1700 420
l94 -94v-2l-92 -92l-94 94v3zM1930 190l46 -46l-92 -92h-2l-44 44v2z" />
    </font>
</defs>
</svg>
