<?xml version="1.0" standalone="no"?><!DOCTYPE svg PUBLIC "-//W3C//DTD SVG 1.1//EN" "http://www.w3.org/Graphics/SVG/1.1/DTD/svg11.dtd"><svg t="1539908789728" class="icon" style="" viewBox="0 0 1024 1024" version="1.1" xmlns="http://www.w3.org/2000/svg" p-id="2496" xmlns:xlink="http://www.w3.org/1999/xlink" width="32" height="32"><defs><style type="text/css"></style></defs><path d="M795.048 543.629v315.076H227.911V543.629h567.137m0-63.015H227.911c-34.804 0-63.015 28.211-63.015 63.015v315.076c0 34.803 28.211 63.014 63.015 63.014h567.137c34.805 0 63.016-28.211 63.016-63.014V543.629c-0.001-34.804-28.211-63.015-63.016-63.015z m0 0" p-id="2497"></path><path d="M511.482 701.166a31.501 31.501 0 0 0-31.508 31.506v157.539c0 17.402 14.105 31.508 31.508 31.508 17.398 0 31.507-14.105 31.507-31.508V732.672c0-8.355-3.32-16.367-9.23-22.277s-13.922-9.229-22.277-9.229z m-126.032 0a31.5 31.5 0 0 0-22.281 9.229 31.517 31.517 0 0 0-9.227 22.277v157.539c0 17.402 14.106 31.508 31.508 31.508 17.399 0 31.508-14.105 31.508-31.508V732.672c0-8.355-3.32-16.367-9.23-22.277a31.494 31.494 0 0 0-22.278-9.229z m252.059 0a31.502 31.502 0 0 0-31.504 31.506v157.539c0 17.402 14.105 31.508 31.504 31.508 17.402 0 31.508-14.105 31.508-31.508V732.672a31.507 31.507 0 0 0-31.508-31.506z m193.898-157.537H191.552c-49.469 0-89.672-42.41-89.672-94.523s40.203-94.524 89.672-94.524h225.406c17.399 0 31.508 14.106 31.508 31.508 0 17.399-14.109 31.508-31.508 31.508H191.552c-14.746 0-26.656 14.113-26.656 31.508 0 17.391 11.91 31.508 26.656 31.508h639.855c14.746 0 26.656-14.117 26.656-31.508 0-17.395-11.91-31.508-26.656-31.508H606.005c-17.402 0-31.508-14.109-31.508-31.508 0-17.402 14.105-31.508 31.508-31.508h225.402c49.406 0 89.672 42.411 89.672 94.524s-40.266 94.523-89.672 94.523z m0 0" p-id="2498"></path><path d="M637.509 390.059h-63.012V197.043c0-8.355-3.32-16.371-9.23-22.281a31.516 31.516 0 0 0-22.277-9.226h-63.016c-8.36 0-16.371 3.32-22.282 9.226a31.509 31.509 0 0 0-9.226 22.281V386.09H385.45V197.043c0-52.113 42.41-94.523 94.524-94.523h63.016c52.113 0 94.52 42.41 94.52 94.523v193.016z m0 0" p-id="2499"></path></svg>