<?xml version="1.0" standalone="no"?><!DOCTYPE svg PUBLIC "-//W3C//DTD SVG 1.1//EN" "http://www.w3.org/Graphics/SVG/1.1/DTD/svg11.dtd"><svg t="1539908779111" class="icon" style="" viewBox="0 0 1024 1024" version="1.1" xmlns="http://www.w3.org/2000/svg" p-id="2385" xmlns:xlink="http://www.w3.org/1999/xlink" width="32" height="32"><defs><style type="text/css"></style></defs><path d="M169.38496 174.3872l29.52704-39.69024 79.39072 59.06432-29.52704 39.69024zM278.30784 255.60576l29.78816-39.5008 95.95904 72.36608-29.78816 39.5008zM506.5728 318.27968l-24.85248-42.78272 85.56544-49.69984 24.84736 42.7776zM624.61952 246.33344l-22.7328-43.93984 87.86944-45.47584 22.74304 43.93984zM760.71424 281.05728l49.39776-2.78528 5.56032 98.80064-49.39776 2.78016zM769.0752 429.184l49.408-2.78016 5.56032 98.79552-49.408 2.78016zM777.37984 577.42848l49.408-2.78528 5.56544 98.79552-49.408 2.78528zM790.70208 727.35232l49.46944 0.40448-0.56832 69.95456a73.48736 73.48736 0 0 1-13.1072 41.45664l-40.68864-28.04224a24.44288 24.44288 0 0 0 4.32128-13.81888l0.57344-69.95456zM785.34656 851.08736l-5.64224 49.152-98.304-11.27424 5.63712-49.15712zM637.88544 834.1504l-5.632 49.16224-98.30912-11.26912 5.632-49.15712zM490.42432 817.24416l-5.632 49.15712-98.30912-11.26912 5.632-49.15712zM342.97344 800.384l-5.632 49.15712-98.31424-11.26912 5.632-49.16224zM193.92512 704.79872l-49.22368 4.92032-9.84576-98.44736 49.22368-4.92032zM179.18464 557.1072l-49.2288 4.92032-9.84576-98.4576 49.2288-4.9152zM164.38272 409.42592l-49.22368 4.9152-9.8304-98.44736 49.21856-4.9152z" p-id="2386"></path><path d="M97.64352 250.94656H50.67776V151.99744a49.47456 49.47456 0 0 1 49.47456-49.47456h98.95424v148.4288H146.65728l0.96256 10.83392-47.99488 3.8656-1.98144-14.70464zM685.34784 109.87008h98.94912c27.32032 0 49.46944 22.14912 49.46944 49.47456v98.95424h-148.41856v-148.4288zM733.96224 786.22208h148.41856v98.944a49.47456 49.47456 0 0 1-49.47456 49.47456h-98.944v-148.41856zM149.632 735.69792h148.4288v148.41856H199.10656c-27.32544 0-49.47456-22.14912-49.47456-49.46944v-98.94912zM645.8368 596.72064a273.9456 273.9456 0 0 0-27.80672 0.89088 500.49536 500.49536 0 0 0-28.20096 2.9184 255.26272 255.26272 0 0 0-32.26112 6.32832l42.55232 70.35392a28.5696 28.5696 0 0 1 1.98144 22.41536 28.7232 28.7232 0 0 1-14.44352 17.21856 26.3936 26.3936 0 0 1-10.98752 3.35872 28.928 28.928 0 0 1-20.97664-6.6816 28.672 28.672 0 0 1-7.424-9.09824l-35.62496-79.01696a199.84896 199.84896 0 0 0-26.16832 17.96096 270.42816 270.42816 0 0 0-20.08576 17.96096 168.53504 168.53504 0 0 0-17.37216 19.39456l-0.5888-236.19584 197.40672 152.192zM526.61248 277.51424a40.30464 40.30464 0 0 0-35.45088-39.10144v-0.29696H405.70368v0.30208a40.2944 40.2944 0 0 0-35.456 39.09632h-0.02048v81.536h0.02048a40.30976 40.30976 0 0 0 35.45088 39.10144v0.29696h85.45792v-0.30208a40.2944 40.2944 0 0 0 35.456-39.09632h0.02048V277.51424h-0.02048z" p-id="2387"></path></svg>