<?xml version="1.0" standalone="no"?><!DOCTYPE svg PUBLIC "-//W3C//DTD SVG 1.1//EN" "http://www.w3.org/Graphics/SVG/1.1/DTD/svg11.dtd"><svg t="1539908771029" class="icon" style="" viewBox="0 0 1024 1024" version="1.1" xmlns="http://www.w3.org/2000/svg" p-id="2275" xmlns:xlink="http://www.w3.org/1999/xlink" width="32" height="32"><defs><style type="text/css"></style></defs><path d="M204.278 179.321v-51.199h102.403v51.199H204.278z m153.602 0v-51.199h102.398v51.199H357.88z m153.602 0v-51.199H613.88v51.199H511.482z m153.597 0v-51.199h102.402v51.199H665.079z m153.602 0v-51.199c42.414 0 76.801 34.382 76.801 76.796v30.004h-51.203v-30.004c-0.001-14.136-11.462-25.597-25.598-25.597z m25.597 106.801h51.203v102.402h-51.203V286.122z m0 153.601h51.203v102.4h-51.203v-102.4z m0 153.603h51.203v102.396h-51.203V593.326z m0 153.596h51.203v72.398c0 15.512-4.609 30.41-13.211 43.01l-42.344-28.674a25.342 25.342 0 0 0 4.352-14.336v-72.398z m-34.406 97.996v51.205H707.474v-51.205h102.398z m-153.598 0v51.205H553.872v-51.205h102.402z m-153.601 0v51.205H400.275v-51.205h102.398z m-153.598 0v51.205H246.673v-51.205h102.402z m-149.199-0.355l-8.703 50.432c-35.586-6.322-62.012-36.494-63.59-72.604l-0.101-41.777 51.199-0.102v40.344c0.707 11.863 9.484 21.685 21.195 23.707z m-21.195-115.204h-51.199V626.961h51.199v102.398z m0-153.597h-51.199V473.36h51.199v102.402z m0-153.601h-51.199V319.762h51.199v102.399z m-51.199-166.039H101.88V153.719c0-28.277 22.922-51.199 51.199-51.199h102.403v153.602h-76.801v12.441h-51.199v-12.441zM767.481 102.52H869.88c28.277 0 51.199 22.922 51.199 51.199v102.403H767.481V102.52z m0 665.603h153.598V870.52c0 28.277-22.922 51.199-51.199 51.199H767.481V768.123z m-665.601 0h153.602v153.596H153.079c-28.277 0-51.199-22.922-51.199-51.199V768.123z m511.488-252.111a283.94 283.94 0 0 0-28.773 0.922 511.211 511.211 0 0 0-29.184 3.021c-10.906 1.381-22.02 3.586-33.383 6.553l44.031 72.805a29.542 29.542 0 0 1 2.047 23.195 29.696 29.696 0 0 1-14.949 17.818 27.265 27.265 0 0 1-11.367 3.479 29.926 29.926 0 0 1-21.707-6.91 29.675 29.675 0 0 1-7.68-9.422l-36.867-81.766a207.14 207.14 0 0 0-27.082 18.586 280.885 280.885 0 0 0-20.789 18.586c-6.808 6.551-12.801 13.262-17.973 20.072l-0.613-244.431 204.289 157.492z m0 0" p-id="2276"></path></svg>