<?xml version="1.0" standalone="no"?><!DOCTYPE svg PUBLIC "-//W3C//DTD SVG 1.1//EN" "http://www.w3.org/Graphics/SVG/1.1/DTD/svg11.dtd"><svg t="1540259725735" class="icon" style="" viewBox="0 0 1024 1024" version="1.1" xmlns="http://www.w3.org/2000/svg" p-id="1976" xmlns:xlink="http://www.w3.org/1999/xlink" width="32" height="32"><defs><style type="text/css"></style></defs><path d="M379.24 351.81h68v309h-68zM535.24 351.81h68v309h-68z" p-id="1977" fill="#697177"></path><path d="M491.242 96.71C265.14 96.71 81.64 280.21 81.64 506.313c0 226.097 183.5 409.597 409.602 409.597 226.098 0 409.598-183.5 409.598-409.597 0-226.103-183.5-409.603-409.598-409.603z m0 792.984c-212.993 0-383.387-170.391-383.387-383.382 0-212.993 170.394-383.387 383.387-383.387 212.992 0 383.383 170.394 383.383 383.387 0 212.992-170.391 383.382-383.383 383.382z" p-id="1978" fill="#697177"></path></svg>