<?xml version="1.0" standalone="no"?><!DOCTYPE svg PUBLIC "-//W3C//DTD SVG 1.1//EN" "http://www.w3.org/Graphics/SVG/1.1/DTD/svg11.dtd"><svg t="1540259692658" class="icon" style="" viewBox="0 0 1024 1024" version="1.1" xmlns="http://www.w3.org/2000/svg" p-id="1762" xmlns:xlink="http://www.w3.org/1999/xlink" width="32" height="32"><defs><style type="text/css"></style></defs><path d="M511.482 921.719c-226.243 0-409.602-183.359-409.602-409.597 0-226.243 183.359-409.602 409.602-409.602 226.238 0 409.597 183.359 409.597 409.602 0 226.237-183.359 409.597-409.597 409.597z m0-793.597c-212.883 0-384 171.117-384 384 0 212.878 171.117 384.001 384 384.001 212.957 0 384-171.123 384-384.001-0.001-212.883-171.122-384-384-384z m204.796 384L409.079 691.32V332.918l307.199 179.204z m0 0" p-id="1763" fill="#697177"></path></svg>