<?xml version="1.0" standalone="no"?><!DOCTYPE svg PUBLIC "-//W3C//DTD SVG 1.1//EN" "http://www.w3.org/Graphics/SVG/1.1/DTD/svg11.dtd"><svg t="1540260873132" class="icon" style="" viewBox="0 0 1024 1024" version="1.1" xmlns="http://www.w3.org/2000/svg" p-id="2683" xmlns:xlink="http://www.w3.org/1999/xlink" width="32" height="32"><defs><style type="text/css"></style></defs><path d="M899.946 471.598c0.696 5.797 1.2 11.639 1.708 17.501 0.822 10.439 1.602 20.878 1.602 31.529s-0.779 21.09-1.602 31.526c-0.508 5.841-1.012 11.703-1.708 17.485h0.02c-1.876 15.266-4.7 30.199-8.224 44.896-37.876 9.365-73.918 35.22-96.818 74.885-22.901 39.669-27.269 83.83-16.47 121.282-11.01 10.482-22.648 20.246-34.797 29.421 0-0.023-0.022-0.023-0.022-0.042-18.938 14.298-39.142 26.992-60.441 37.853a2.195 2.195 0 0 1-0.336 0.168 388.152 388.152 0 0 1-32.057 14.552c-0.883 0.358-1.811 0.634-2.697 0.993-10.501 4.131-21.174 7.906-32.099 11.135-27.035-28.216-67.525-46.564-113.434-46.564-45.913 0-86.403 18.368-113.438 46.564-10.925-3.229-21.595-7.004-32.099-11.135-0.906-0.359-1.811-0.635-2.721-0.993a391.601 391.601 0 0 1-32.034-14.552 1.552 1.552 0 0 1-0.336-0.168c-21.299-10.86-41.502-23.555-60.44-37.853-0.023 0.019-0.023 0.019-0.023 0.042-12.144-9.175-23.807-18.938-34.814-29.421 10.817-37.452 6.454-81.613-16.451-121.282-22.901-39.665-58.962-65.52-96.818-74.885-3.52-14.696-6.348-29.63-8.225-44.877h0.02c-0.696-5.801-1.201-11.663-1.728-17.504-0.802-10.437-1.582-20.876-1.582-31.526s0.78-21.09 1.582-31.529c0.527-5.862 1.032-11.705 1.728-17.501h-0.02c1.876-15.251 4.705-30.199 8.225-44.877 37.856-9.366 73.895-35.221 96.8-74.889 22.9-39.668 27.269-83.808 16.47-121.282 11.008-10.478 22.648-20.222 34.796-29.417 0 0.019 0.019 0.042 0.019 0.062 18.938-14.295 39.165-27.012 60.464-37.895 0.103-0.042 0.21-0.084 0.317-0.149a393.519 393.519 0 0 1 32.075-14.551c0.887-0.355 1.792-0.63 2.679-0.989 10.5-4.135 21.193-7.91 32.136-11.135 27.04 28.196 67.529 46.542 113.419 46.542s86.379-18.346 113.414-46.542c10.944 3.225 21.617 7 32.141 11.135 0.883 0.359 1.792 0.634 2.675 0.989a393.622 393.622 0 0 1 32.08 14.551c0.103 0.065 0.21 0.107 0.313 0.149 21.3 10.883 41.503 23.6 60.464 37.895 0-0.02 0-0.042 0.02-0.062 12.147 9.194 23.791 18.938 34.796 29.417-10.795 37.475-6.431 81.614 16.474 121.282 22.9 39.668 58.942 65.523 96.773 74.889 3.544 14.677 6.368 29.607 8.224 44.877z m-44.222-12.129c-38.637-16.026-73.62-45.634-97.263-86.589-23.535-40.766-31.717-85.642-26.447-126.953-31.314-26.13-67.017-47.22-106.055-61.539-33.172 25.346-76.215 40.765-123.388 40.765-47.177 0-90.22-15.419-123.392-40.765-39.035 14.318-74.74 35.408-106.079 61.539 5.296 41.311-2.907 86.187-26.442 126.953-23.619 40.956-58.606 70.563-97.243 86.589-3.436 19.89-5.354 40.279-5.354 61.159 0 20.875 1.918 41.271 5.354 61.156 38.637 16.006 73.625 45.636 97.285 86.57 23.536 40.765 31.716 85.663 26.424 126.998 31.315 26.106 67.021 47.196 106.032 61.516 33.176-25.351 76.238-40.785 123.416-40.785 47.173 0 90.238 15.435 123.411 40.785 39.015-14.319 74.693-35.409 106.031-61.516-5.311-41.335 2.89-86.233 26.425-126.998 23.642-40.935 58.629-70.564 97.285-86.591 3.416-19.865 5.357-40.261 5.357-61.136 0-20.879-1.941-41.268-5.357-61.158zM502.571 668.037c-81.428 0-147.431-66.01-147.431-147.432 0-81.4 66.003-147.409 147.431-147.409 81.4 0 147.408 66.009 147.408 147.409 0 81.422-66.007 147.432-147.408 147.432z m0-252.6c-58.103 0-105.172 47.089-105.172 105.169 0 58.102 47.07 105.19 105.172 105.19 58.075 0 105.168-47.089 105.168-105.19 0-58.081-47.093-105.169-105.168-105.169z m0 0" p-id="2684" fill="#697177"></path></svg>